<?xml version="1.0" encoding="UTF-8" standalone="no"?>
<!-- Created with Inkscape (http://www.inkscape.org/) -->

<svg
   xmlns:dc="http://purl.org/dc/elements/1.1/"
   xmlns:cc="http://creativecommons.org/ns#"
   xmlns:rdf="http://www.w3.org/1999/02/22-rdf-syntax-ns#"
   xmlns:svg="http://www.w3.org/2000/svg"
   xmlns="http://www.w3.org/2000/svg"
   version="1.1"
   width="642.35504"
   height="248.40146"
   id="svg3380">
  <defs
     id="defs3382" />
  <g
     transform="translate(-30.67963,-426.87537)"
     id="layer1">
    <path
       d="m 169.75475,494.62069 c -14.81358,0.31147 -26.14478,5.17676 -34,14.59375 -8.07391,9.26677 -12.125,19.64513 -12.125,31.15625 0,11.50229 4.05109,21.84621 12.125,31.03125 7.85522,9.45675 19.18642,14.37635 34,14.71875 11.63924,-0.26729 21.68219,-4.21859 30.125,-11.875 l -6.96875,-8.0625 c -5.92234,6.22939 -13.65786,9.36902 -23.1875,9.4375 -9.16737,-0.0685 -17.08134,-3.41528 -23.78125,-10.03125 -6.96278,-6.38844 -10.5395,-14.77425 -10.6875,-25.1875 0.148,-10.53253 3.67703,-19.03645 10.5625,-25.5 6.6226,-6.46576 14.60413,-9.73298 23.90625,-9.8125 8.53117,0.0795 15.98688,3.11651 22.40625,9.125 l 7.4375,-8.25 c -7.63653,-7.32727 -17.57462,-11.1118 -29.8125,-11.34375 z m -94.5625,1.4375 -35.3125,88.625 12,0 7.875,-20.625 40.4375,0 7.875,20.625 12.0625,0 -35.3125,-88.625 -9.625,0 z m 143.4375,0 0,56.46875 c 0.0663,9.7881 3.2962,17.76522 9.625,23.90625 6.17417,6.26474 14.26562,9.49311 24.28125,9.6875 10.19235,-0.19439 18.40035,-3.42939 24.65625,-9.6875 6.32659,-6.1565 9.52085,-14.14057 9.59375,-23.9375 l 0,-56.4375 -10.9375,0 0,53.1875 c 0,7.41342 -1.91926,13.61245 -5.71875,18.59375 -3.87238,5.12931 -9.66337,7.71277 -17.375,7.78125 -7.57909,-0.0685 -13.31512,-2.65194 -17.1875,-7.78125 -3.98946,-4.9813 -5.96875,-11.18033 -5.96875,-18.59375 l 0,-53.1875 -10.96875,0 z m 87.84375,0 0,88.625 10.9375,0 0,-78.84375 23.84375,0 c 12.07442,0.30042 18.24343,6.02949 18.46875,17.15625 0.0707,4.90178 -1.58423,8.93741 -4.9375,12.125 -3.42396,3.34222 -9.36273,5.03125 -17.78125,5.03125 -3.49906,0 -8.25721,-0.0114 -12.78125,-0.0312 l 34.96875,44.5625 13.90625,0 -28.875,-35.3125 c 7.33389,-0.57213 13.54903,-3.15306 18.65625,-7.75 5.10059,-4.47986 7.70173,-10.73573 7.78125,-18.75 -0.0795,-8.6593 -2.81994,-15.25974 -8.21875,-19.8125 -5.44078,-4.59694 -12.43978,-6.92048 -20.96875,-7 l -35,0 z m 113.1875,0 -35.34375,88.625 12,0 7.875,-20.625 40.46875,0 7.875,20.625 12.0625,0 -35.34375,-88.625 -9.59375,0 z m -339.65625,14.65625 16.46875,43.5625 -32.9375,0 16.46875,-43.5625 z m 344.46875,0 16.4375,43.5625 -32.90625,0 16.46875,-43.5625 z m -385.09375,112.0625 0,44.71875 5.59375,0 0,-20.4375 17.71875,20.4375 8.0625,0 -20.375,-22.90625 20.5625,-21.8125 -7.4375,0 -18.53125,20.4375 0,-20.4375 -5.59375,0 z m 63.96875,0 0,44.71875 21.21875,0 0,-5.3125 -15.625,0 0,-39.40625 -5.59375,0 z m 53.65625,0 0,44.71875 5.59375,0 0,-44.71875 -5.59375,0 z m 40.4375,0 0,44.71875 5.59375,0 0,-34.625 0.0937,0 23.875,34.625 5.25,0 0,-44.71875 -5.59375,0 0,34.59375 -0.125,0 -23.8125,-34.59375 -5.28125,0 z m 70.59375,0 0,44.71875 5.59375,0 0,-44.71875 -5.59375,0 z m 40.65625,0 0,44.71875 5.59375,0 0,-20.4375 17.71875,20.4375 8.0625,0 -20.375,-22.90625 20.5625,-21.8125 -7.4375,0 -18.53125,20.4375 0,-20.4375 -5.59375,0 z m 63.96875,0 0,44.71875 22.96875,0 0,-5.3125 -17.375,0 0,-14.65625 17.375,0 0,-5.28125 -17.375,0 0,-14.21875 17.375,0 0,-5.25 -22.96875,0 z m 57.03125,0 0,44.71875 5.59375,0 0,-34.625 0.125,0 23.875,34.625 5.25,0 0,-44.71875 -5.59375,0 0,34.59375 -0.125,0 -23.8125,-34.59375 -5.3125,0 z"
       id="path60"
       style="fill:#315c96;fill-opacity:1;fill-rule:nonzero;stroke:none" />
    <path
       d="m 582.66939,674.26616 c -1.33203,-0.11487 -2.37689,-1.17078 -2.47188,-2.50281 l -15.1869,-209.65881 -14.21495,141.49998 c -0.13695,1.374 -1.30994,2.43654 -2.70161,2.43654 l -513.70176,0 c -1.49992,0 -2.71266,-1.21054 -2.71266,-2.71266 0,-1.49108 1.21274,-2.70161 2.71266,-2.70161 l 511.24756,-0.007 17.10874,-170.30541 c 0.14137,-1.3983 1.32982,-2.45862 2.73695,-2.43874 1.40935,0.0221 2.56908,1.11113 2.6729,2.51164 l 16.23176,224.14105 13.03976,-51.85196 c 0.30263,-1.20611 1.38504,-2.04554 2.63313,-2.04554 l 69.25891,0 c 1.49771,0 2.71266,1.21054 2.71266,2.70162 0,1.50212 -1.21495,2.71265 -2.71266,2.71265 l -67.13827,0 -16.64705,66.18178 c -0.30043,1.21274 -1.38947,2.04995 -2.62651,2.04995 -0.0795,0 -0.15905,-0.002 -0.24078,-0.011"
       id="path72"
       style="fill:#f68712;fill-opacity:1;fill-rule:nonzero;stroke:none" />
  </g>
</svg>
