<?xml version="1.0" encoding="utf-8"?>
<!-- Generator: Adobe Illustrator 16.0.3, SVG Export Plug-In . SVG Version: 6.00 Build 0)  -->
<svg version="1.2" baseProfile="tiny" id="Layer_1" xmlns="http://www.w3.org/2000/svg" xmlns:xlink="http://www.w3.org/1999/xlink"
	 x="0px" y="0px" width="515px" height="183px" viewBox="0 0 515 183" xml:space="preserve">
<path fill="#00425C" d="M34.603,40.03c-0.529,0-1.065-0.047-1.605-0.145c-4.892-0.88-8.144-5.56-7.263-10.451l3.046-16.922
	c0.88-4.893,5.555-8.146,10.452-7.264c4.892,0.881,8.144,5.561,7.263,10.453L43.45,32.624C42.667,36.976,38.875,40.03,34.603,40.03
	L34.603,40.03z M134.96,179.813c0.764,0,1.513-0.098,2.232-0.283c1.327-0.34,2.537-0.975,3.553-1.832
	c0.996-0.837,1.814-1.892,2.376-3.107c0.338-0.732,0.582-1.517,0.714-2.338l18.577-103.188c0.881-4.892-2.371-9.571-7.263-10.452
	c-4.893-0.886-9.572,2.371-10.452,7.263l-17.272,95.938H83.806l16.697-92.748c0.881-4.892-2.371-9.571-7.263-10.452
	c-4.898-0.886-9.572,2.371-10.452,7.263l-17.272,95.938H22.385l16.697-92.748c0.881-4.892-2.371-9.571-7.263-10.452
	c-4.899-0.886-9.572,2.371-10.452,7.263L2.794,169.044c-0.063,0.317-0.11,0.639-0.139,0.967c-0.095,1.047-0.004,2.075,0.248,3.049
	c0.338,1.317,0.968,2.518,1.815,3.529c0.844,1.01,1.912,1.84,3.145,2.404c0.913,0.42,1.907,0.691,2.954,0.784
	c0.33,0.03,0.658,0.042,0.979,0.035h61.089c0.112,0.002,0.222,0.002,0.332,0h61.577C134.85,179.813,134.905,179.813,134.96,179.813
	L134.96,179.813z"/>
<path fill="#20908E" d="M173.977,135.798c-0.529,0-1.065-0.047-1.605-0.145c-4.892-0.881-8.144-5.561-7.263-10.452l16.697-92.748
	h-43.131l-17.272,95.938c-0.88,4.892-5.561,8.14-10.452,7.263c-4.892-0.881-8.144-5.561-7.263-10.452l16.697-92.748H76.767
	l-17.272,95.938c-0.881,4.892-5.566,8.14-10.452,7.263c-4.892-0.881-8.144-5.561-7.263-10.452L60.357,22.013
	c0.132-0.821,0.375-1.605,0.714-2.338c0.562-1.216,1.38-2.271,2.376-3.107c1.017-0.857,2.226-1.492,3.553-1.832
	c0.771-0.199,1.572-0.296,2.398-0.282h61.577c0.11-0.002,0.22-0.002,0.332,0h61.089c0.324-0.004,0.65,0.006,0.979,0.035
	c1.046,0.093,2.041,0.364,2.954,0.784c1.233,0.564,2.301,1.395,3.145,2.404c0.848,1.012,1.477,2.212,1.815,3.529
	c0.251,0.974,0.342,2.002,0.248,3.049c-0.029,0.328-0.075,0.649-0.139,0.967l-18.574,103.169
	C182.041,132.743,178.25,135.798,173.977,135.798L173.977,135.798z"/>
<g>
	<path fill="#00425C" d="M162.272,179.896l-1.352-33.291h7.54l0.052,14.818c-0.052,4-0.104,7.803-0.208,10.768h0.104
		c1.196-3.261,2.496-6.619,4.108-10.67l6.292-14.916h8.216l-0.104,14.867c-0.052,4-0.156,7.311-0.312,10.57h0.104
		c1.196-3.458,2.496-7.063,3.848-10.619l6.084-14.818h7.852l-15.445,33.291h-8.164l-0.26-13.682c0-3.902,0.104-7.262,0.312-11.016
		h-0.104c-1.3,3.557-2.496,7.113-4.265,11.213l-5.98,13.484H162.272z"/>
	<path fill="#00425C" d="M201.739,179.896l4.836-25.43h7.488l-4.836,25.43H201.739z M207.616,147.654
		c0.052-2.548,2.028-4.264,4.316-4.264c2.185,0,3.744,1.456,3.744,3.692c0,2.651-2.028,4.212-4.42,4.212
		C209.176,151.295,207.616,149.891,207.616,147.654z"/>
	<path fill="#00425C" d="M216.455,173.188c1.456,0.729,4.212,1.769,6.656,1.769c2.132,0,3.225-1.04,3.225-2.288
		s-0.832-2.133-3.172-3.276c-2.964-1.456-5.408-3.588-5.408-6.761c0-5.252,4.628-8.736,11.18-8.736c2.964,0,5.305,0.572,6.553,1.301
		l-1.769,5.304c-1.092-0.52-2.86-1.144-5.096-1.144c-1.977,0-3.328,0.884-3.328,2.236c0,1.039,1.04,1.924,3.12,2.912
		c2.756,1.403,5.668,3.432,5.668,6.968c0,5.824-4.94,8.944-11.648,8.944c-3.224,0-6.292-0.832-7.8-1.977L216.455,173.188z"/>
	<path fill="#00425C" d="M238.087,173.188c1.456,0.729,4.212,1.769,6.656,1.769c2.132,0,3.224-1.04,3.224-2.288
		s-0.832-2.133-3.172-3.276c-2.964-1.456-5.408-3.588-5.408-6.761c0-5.252,4.628-8.736,11.181-8.736
		c2.964,0,5.304,0.572,6.552,1.301l-1.768,5.304c-1.092-0.52-2.86-1.144-5.097-1.144c-1.976,0-3.328,0.884-3.328,2.236
		c0,1.039,1.04,1.924,3.12,2.912c2.756,1.403,5.668,3.432,5.668,6.968c0,5.824-4.939,8.944-11.648,8.944
		c-3.224,0-6.292-0.832-7.8-1.977L238.087,173.188z"/>
	<path fill="#00425C" d="M280.051,178.439c-2.965,1.509-6.656,1.977-9.465,1.977c-7.28,0-11.024-4.108-11.024-10.713
		c0-7.748,5.616-15.809,14.82-15.809c5.148,0,8.841,2.86,8.841,7.593c0,6.5-6.293,8.841-16.484,8.58c0,0.729,0.26,1.872,0.779,2.601
		c0.988,1.3,2.704,1.976,4.889,1.976c2.756,0,5.096-0.624,7.124-1.612L280.051,178.439z M273.446,159.355
		c-3.484,0-5.46,2.859-5.98,5.252c5.824,0.052,8.736-0.78,8.736-3.068C276.202,160.239,275.162,159.355,273.446,159.355z"/>
	<path fill="#00425C" d="M284.833,179.896l3.225-17.161c0.624-3.224,1.04-6.032,1.352-8.269h6.656l-0.52,4.213h0.104
		c2.393-3.328,5.564-4.785,8.944-4.785c4.16,0,6.5,2.549,6.5,6.917c0,1.144-0.207,3.067-0.416,4.315l-2.808,14.77h-7.488
		l2.652-14.093c0.155-0.884,0.26-1.925,0.26-2.86c0-1.768-0.624-3.016-2.496-3.016c-2.444,0-5.304,3.067-6.345,8.684l-2.132,11.285
		H284.833z"/>
	<path fill="#00425C" d="M315.045,173.188c1.456,0.729,4.212,1.769,6.656,1.769c2.132,0,3.224-1.04,3.224-2.288
		s-0.832-2.133-3.172-3.276c-2.964-1.456-5.408-3.588-5.408-6.761c0-5.252,4.628-8.736,11.181-8.736
		c2.964,0,5.304,0.572,6.552,1.301l-1.768,5.304c-1.093-0.52-2.86-1.144-5.097-1.144c-1.976,0-3.328,0.884-3.328,2.236
		c0,1.039,1.04,1.924,3.12,2.912c2.757,1.403,5.669,3.432,5.669,6.968c0,5.824-4.94,8.944-11.648,8.944
		c-3.225,0-6.293-0.832-7.801-1.977L315.045,173.188z"/>
	<path fill="#00425C" d="M335.739,179.896l3.173-17.161c0.571-3.224,0.987-6.032,1.3-8.269h6.448l-0.469,4.108h0.104
		c2.288-3.276,5.408-4.681,8.685-4.681c4.056,0,5.824,2.549,6.032,4.785c2.288-3.276,5.46-4.785,8.736-4.785
		c3.952,0,6.24,2.496,6.24,6.813c0,1.092-0.208,3.068-0.468,4.368l-2.757,14.821h-7.228l2.548-13.885
		c0.208-1.04,0.364-2.133,0.364-3.12c0-1.769-0.78-3.017-2.549-3.017c-2.496,0-4.939,3.381-5.928,8.477l-2.133,11.545h-7.228
		l2.6-13.989c0.208-1.04,0.364-2.028,0.364-2.912c0-1.716-0.572-3.12-2.393-3.12c-2.548,0-5.199,3.588-6.136,8.58l-2.08,11.441
		H335.739z"/>
	<path fill="#00425C" d="M400.221,178.439c-2.965,1.509-6.656,1.977-9.465,1.977c-7.28,0-11.024-4.108-11.024-10.713
		c0-7.748,5.616-15.809,14.82-15.809c5.148,0,8.841,2.86,8.841,7.593c0,6.5-6.293,8.841-16.484,8.58c0,0.729,0.26,1.872,0.779,2.601
		c0.988,1.3,2.704,1.976,4.889,1.976c2.756,0,5.096-0.624,7.124-1.612L400.221,178.439z M393.616,159.355
		c-3.484,0-5.46,2.859-5.98,5.252c5.824,0.052,8.736-0.78,8.736-3.068C396.372,160.239,395.332,159.355,393.616,159.355z"/>
	<path fill="#00425C" d="M435.061,142.975l-5.148,27.041c-0.624,3.276-1.092,6.864-1.196,9.881h-6.864l0.364-4.108h-0.104
		c-2.235,3.38-5.355,4.68-8.32,4.68c-4.315,0-7.904-3.432-7.904-9.62c0-8.84,6.396-16.953,16.018-16.953
		c1.039,0,2.392,0.156,3.483,0.572l2.185-11.492H435.061z M424.296,160.447c-0.572-0.468-1.716-0.884-2.964-0.884
		c-4.473,0-7.645,5.2-7.645,10.088c0,3.068,1.352,4.784,3.536,4.784c2.132,0,4.784-2.288,5.772-7.124L424.296,160.447z"/>
	<path fill="#00425C" d="M434.331,179.896l4.837-25.43h7.488l-4.837,25.43H434.331z M440.207,147.654
		c0.053-2.548,2.028-4.264,4.316-4.264c2.185,0,3.744,1.456,3.744,3.692c0,2.651-2.027,4.212-4.42,4.212
		C441.768,151.295,440.207,149.891,440.207,147.654z"/>
	<path fill="#00425C" d="M469.381,178.439c-2.965,1.509-6.656,1.977-9.465,1.977c-7.28,0-11.024-4.108-11.024-10.713
		c0-7.748,5.616-15.809,14.82-15.809c5.148,0,8.841,2.86,8.841,7.593c0,6.5-6.293,8.841-16.484,8.58c0,0.729,0.26,1.872,0.779,2.601
		c0.988,1.3,2.704,1.976,4.889,1.976c2.756,0,5.096-0.624,7.124-1.612L469.381,178.439z M462.776,159.355
		c-3.484,0-5.46,2.859-5.98,5.252c5.824,0.052,8.736-0.78,8.736-3.068C465.532,160.239,464.492,159.355,462.776,159.355z"/>
	<path fill="#00425C" d="M474.163,179.896l3.225-17.161c0.624-3.224,1.04-6.032,1.352-8.269h6.656l-0.52,4.213h0.104
		c2.393-3.328,5.564-4.785,8.944-4.785c4.16,0,6.5,2.549,6.5,6.917c0,1.144-0.207,3.067-0.416,4.315l-2.808,14.77h-7.488
		l2.652-14.093c0.155-0.884,0.26-1.925,0.26-2.86c0-1.768-0.624-3.016-2.496-3.016c-2.444,0-5.304,3.067-6.345,8.684l-2.132,11.285
		H474.163z"/>
</g>
<g>
	<path fill="#00425C" d="M289.724,95.847l-6.656,35.05h-7.488l6.656-35.05H289.724z"/>
	<path fill="#00425C" d="M289.67,130.896l3.225-17.161c0.624-3.224,1.04-6.032,1.352-8.269h6.656l-0.52,4.213h0.104
		c2.393-3.328,5.564-4.785,8.944-4.785c4.16,0,6.501,2.549,6.501,6.917c0,1.144-0.209,3.067-0.416,4.315l-2.809,14.77h-7.488
		l2.652-14.093c0.156-0.884,0.26-1.925,0.26-2.86c0-1.768-0.624-3.016-2.496-3.016c-2.444,0-5.305,3.067-6.344,8.684l-2.133,11.285
		H289.67z"/>
	<path fill="#00425C" d="M319.882,124.188c1.456,0.729,4.212,1.769,6.656,1.769c2.132,0,3.224-1.04,3.224-2.288
		s-0.832-2.133-3.172-3.276c-2.964-1.456-5.408-3.588-5.408-6.761c0-5.252,4.628-8.736,11.181-8.736
		c2.964,0,5.304,0.572,6.552,1.301l-1.768,5.304c-1.092-0.52-2.86-1.144-5.097-1.144c-1.976,0-3.328,0.884-3.328,2.236
		c0,1.039,1.04,1.924,3.12,2.912c2.756,1.403,5.668,3.432,5.668,6.968c0,5.824-4.939,8.944-11.648,8.944
		c-3.224,0-6.292-0.832-7.8-1.977L319.882,124.188z"/>
	<path fill="#00425C" d="M354.982,98.343l-1.353,7.124h5.408l-1.092,5.668h-5.408l-1.716,8.633c-0.209,1.04-0.416,2.34-0.416,3.225
		c0,1.248,0.52,2.132,2.132,2.132c0.676,0,1.403,0,2.08-0.104l-0.884,5.877c-0.937,0.363-2.809,0.571-4.421,0.571
		c-4.472,0-6.604-2.288-6.604-5.46c0-1.404,0.156-2.809,0.521-4.732l1.976-10.141h-3.224l1.04-5.668h3.276l1.04-5.355
		L354.982,98.343z"/>
	<path fill="#00425C" d="M358.672,130.896l4.836-25.43h7.488l-4.836,25.43H358.672z M364.549,98.654
		c0.052-2.548,2.027-4.264,4.315-4.264c2.185,0,3.744,1.456,3.744,3.692c0,2.651-2.028,4.212-4.42,4.212
		C366.108,102.295,364.549,100.891,364.549,98.654z"/>
	<path fill="#00425C" d="M386.857,98.343l-1.353,7.124h5.408l-1.092,5.668h-5.408l-1.716,8.633c-0.209,1.04-0.416,2.34-0.416,3.225
		c0,1.248,0.52,2.132,2.132,2.132c0.676,0,1.403,0,2.08-0.104l-0.884,5.877c-0.937,0.363-2.809,0.571-4.421,0.571
		c-4.472,0-6.604-2.288-6.604-5.46c0-1.404,0.156-2.809,0.521-4.732l1.976-10.141h-3.224l1.04-5.668h3.276l1.04-5.355
		L386.857,98.343z"/>
	<path fill="#00425C" d="M418.161,105.467l-3.276,17.161c-0.624,3.224-0.988,5.979-1.352,8.269h-6.604l0.468-4.16h-0.104
		c-2.601,3.328-5.721,4.731-8.789,4.731c-4.056,0-6.5-2.288-6.5-7.124c0-1.404,0.156-2.912,0.521-4.68l2.651-14.197h7.488
		l-2.548,13.625c-0.208,1.144-0.364,2.392-0.364,3.328c0,1.664,0.625,2.964,2.549,2.964c2.548,0,5.148-3.068,6.136-8.164
		l2.236-11.753H418.161z"/>
	<path fill="#00425C" d="M434.072,98.343l-1.352,7.124h5.408l-1.092,5.668h-5.408l-1.717,8.633c-0.207,1.04-0.416,2.34-0.416,3.225
		c0,1.248,0.521,2.132,2.133,2.132c0.676,0,1.404,0,2.08-0.104l-0.885,5.877c-0.936,0.363-2.808,0.571-4.42,0.571
		c-4.472,0-6.604-2.288-6.604-5.46c0-1.404,0.155-2.809,0.52-4.732l1.977-10.141h-3.225l1.04-5.668h3.276l1.04-5.355L434.072,98.343
		z"/>
	<path fill="#00425C" d="M448.215,130.896l3.692-19.762h-3.276l1.093-5.668H453l0.26-1.352c0.52-2.965,1.716-6.137,4.264-8.269
		c2.028-1.768,4.732-2.444,7.229-2.444c1.82,0,3.172,0.26,4.004,0.624l-1.3,5.98c-0.676-0.312-1.456-0.468-2.444-0.468
		c-2.392,0-3.9,2.132-4.368,4.68l-0.26,1.248h5.044l-1.092,5.668h-4.992l-3.692,19.762H448.215z"/>
	<path fill="#00425C" d="M492.052,105.467l-3.276,17.161c-0.624,3.224-0.988,5.979-1.352,8.269h-6.604l0.468-4.16h-0.104
		c-2.601,3.328-5.721,4.731-8.789,4.731c-4.056,0-6.5-2.288-6.5-7.124c0-1.404,0.156-2.912,0.521-4.68l2.651-14.197h7.488
		l-2.548,13.625c-0.208,1.144-0.364,2.392-0.364,3.328c0,1.664,0.625,2.964,2.549,2.964c2.548,0,5.148-3.068,6.136-8.164
		l2.236-11.753H492.052z M472.604,98.654c0-2.34,1.768-3.899,3.951-3.899c2.08,0,3.433,1.456,3.433,3.432
		c0,2.393-1.769,3.9-3.849,3.9C474.215,102.087,472.604,100.787,472.604,98.654z M483.315,98.654c0-2.34,1.769-3.899,3.952-3.899
		c2.028,0,3.38,1.456,3.38,3.432c0,2.393-1.716,3.9-3.848,3.9C484.928,102.087,483.315,100.787,483.315,98.654z"/>
	<path fill="#00425C" d="M492.519,130.896l2.86-15.133c0.729-3.849,1.04-8.112,1.3-10.297h6.501c-0.156,1.717-0.313,3.433-0.469,5.2
		h0.156c1.768-3.38,4.628-5.772,8.112-5.772c0.468,0,0.937,0,1.404,0.053l-1.456,7.28c-0.364-0.052-0.78-0.052-1.196-0.052
		c-4.784,0-7.021,4.264-7.956,9.256l-1.769,9.465H492.519z"/>
</g>
<g>
	<g>
		<path fill="#20908E" d="M195.534,131.104l0.846-4.891h9.653l0.017-0.098c-0.758-0.485-1.445-1.004-2.139-1.49l-6.399-4.954
			l1.048-6.057l8.047,7.223l13.854-7.611l-0.998,5.765l-10.352,5.345l1.975,1.878h7.127l-0.846,4.891H195.534z"/>
		<path fill="#20908E" d="M215.271,96.416c5.799,0,7.744,4.113,7.01,8.355c-0.802,4.632-4.463,8.194-9.581,8.194
			c-5.119,0-7.808-3.368-6.928-8.452C206.611,99.656,210.509,96.416,215.271,96.416z M213.449,107.881
			c2.721,0,4.958-1.133,5.322-3.238c0.331-1.91-1.368-3.142-4.218-3.142c-2.365,0-4.918,0.907-5.305,3.142
			C208.839,107.008,211.117,107.881,213.449,107.881z"/>
		<path fill="#20908E" d="M223.851,93.632c-1.025-0.065-2.926-0.13-4.707-0.13h-18.271l0.852-4.923h9.038l0.011-0.064
			c-1.198-0.939-1.787-2.592-1.406-4.793c0.656-3.789,4.28-6.574,9.134-6.542c5.701,0,7.924,3.627,7.296,7.254
			c-0.319,1.847-1.308,3.627-3.383,4.761l-0.011,0.064l2.17,0.194L223.851,93.632z M217.987,88.579c0.324,0,0.622-0.032,0.892-0.097
			c1.384-0.324,2.584-1.457,2.831-2.882c0.364-2.105-1.031-3.4-3.881-3.4c-2.463,0-4.597,1.101-4.995,3.4
			c-0.23,1.328,0.561,2.559,1.931,2.882c0.281,0.065,0.566,0.097,0.891,0.097H217.987z"/>
		<path fill="#20908E" d="M204.202,74.264l0.852-4.923h23l-0.852,4.923H204.202z"/>
		<path fill="#20908E" d="M223.027,61.698c2.069-0.162,3.388-2.17,3.786-4.469c0.291-1.684,0.3-3.044,0.109-4.372l3.449-0.648
			c0.368,1.619,0.35,3.595-0.02,5.732c-0.93,5.376-4.573,8.453-9.529,8.453c-4.017,0-8.024-2.494-7.071-8
			c0.886-5.117,5.206-7.061,9.126-7.061c0.842,0,1.57,0.097,1.916,0.162L223.027,61.698z M220.661,55.9
			c-1.198,0-3.296,0.518-3.689,2.785c-0.358,2.073,1.375,2.915,2.68,3.045L220.661,55.9z"/>
		<path fill="#20908E" d="M220.87,48.516c-1.977,0-3.672,0.065-5.076,0.129l0.74-4.275l2.209-0.227l0.017-0.097
			c-0.892-0.648-2.134-2.267-1.681-4.89c0.561-3.239,3.119-5.668,7.784-5.668h9.395l-0.852,4.922h-8.779
			c-2.04,0-3.557,0.712-3.865,2.494c-0.235,1.36,0.564,2.169,1.415,2.494c0.27,0.129,0.744,0.194,1.198,0.194h9.135l-0.852,4.923
			H220.87z"/>
		<path fill="#20908E" d="M231.882,30.93l-5.389-4.987c-0.913-0.907-1.566-1.62-2.381-2.526h-0.064l-1.205,6.963h-3.888
			l2.241-12.955h2.948l5.168,4.761c0.886,0.874,1.75,1.684,2.468,2.591h0.064l1.317-7.611h3.92L234.7,30.93H231.882z"/>
	</g>
	<g>
		<path fill="#20908E" d="M223.741,131.104l0.857-4.955h17.688l1.501-8.68h4.146l-2.359,13.635H223.741z"/>
		<path fill="#20908E" d="M250.304,103.77l-1.637,0.291l-0.017,0.098c1.083,1.037,1.484,2.655,1.159,4.534
			c-0.555,3.206-3.217,5.117-5.744,5.117c-4.114,0-5.451-3.692-4.45-9.296h-0.227c-0.843,0-2.12,0.455-2.54,2.883
			c-0.28,1.619-0.026,3.336,0.441,4.373l-3.332,0.906c-0.425-1.102-0.827-3.271-0.328-6.153c0.913-5.278,4.315-6.964,8.04-6.964
			h5.508c1.522,0,2.991-0.064,3.894-0.227L250.304,103.77z M242.72,104.353c-0.48,2.591-0.212,4.599,1.7,4.599
			c1.263,0,2.023-0.842,2.214-1.943c0.213-1.23-0.423-2.234-1.371-2.559c-0.248-0.064-0.534-0.097-0.826-0.097H242.72z"/>
		<path fill="#20908E" d="M241.232,93.859c-1.977,0-3.672,0.065-5.076,0.129l0.74-4.275l2.209-0.227l0.017-0.097
			c-0.892-0.648-2.134-2.267-1.68-4.891c0.561-3.239,3.119-5.667,7.784-5.667h9.395l-0.852,4.922h-8.779
			c-2.04,0-3.557,0.712-3.865,2.494c-0.235,1.361,0.564,2.17,1.415,2.494c0.27,0.129,0.744,0.194,1.198,0.194h9.135l-0.852,4.923
			H241.232z"/>
		<path fill="#20908E" d="M235.272,57.715h18.271c1.781,0,3.671-0.065,4.752-0.129l-0.756,4.372l-2.371,0.227l-0.011,0.065
			c1.607,1.003,2.184,2.915,1.831,4.955c-0.65,3.757-4.378,6.769-9.302,6.769c-5.351,0.032-7.851-3.304-7.195-7.093
			c0.336-1.943,1.28-3.465,2.505-4.178l0.011-0.065h-8.585L235.272,57.715z M248.286,62.638c-0.26,0-0.622,0.033-0.886,0.065
			c-1.378,0.292-2.665,1.36-2.928,2.882c-0.387,2.234,1.42,3.401,3.914,3.401c2.688,0,4.603-1.328,4.956-3.369
			c0.247-1.425-0.529-2.559-1.871-2.85c-0.34-0.097-0.69-0.13-1.111-0.13H248.286z"/>
		<path fill="#20908E" d="M260.828,42.947l-1.638,0.292l-0.017,0.097c1.083,1.036,1.484,2.655,1.159,4.534
			c-0.555,3.206-3.218,5.117-5.745,5.117c-4.114,0-5.451-3.692-4.449-9.295h-0.227c-0.843,0-2.12,0.454-2.54,2.882
			c-0.28,1.62-0.026,3.336,0.442,4.372l-3.332,0.907c-0.425-1.102-0.827-3.271-0.328-6.153c0.914-5.279,4.315-6.963,8.04-6.963
			h5.508c1.522,0,2.99-0.064,3.894-0.227L260.828,42.947z M253.244,43.53c-0.48,2.591-0.212,4.599,1.7,4.599
			c1.263,0,2.023-0.842,2.214-1.943c0.213-1.23-0.423-2.234-1.371-2.558c-0.247-0.065-0.534-0.097-0.826-0.097H253.244z"/>
		<path fill="#20908E" d="M260.04,18.106c2.073,0,3.769-0.065,5.108-0.129l-0.739,4.275l-2.275,0.227l-0.017,0.097
			c0.865,0.615,2.228,2.105,1.734,4.955c-0.555,3.206-2.973,5.57-7.864,5.57h-9.297l0.857-4.955h8.52c2.3,0,3.822-0.745,4.119-2.461
			c0.235-1.36-0.569-2.138-1.29-2.461c-0.27-0.129-0.653-0.162-1.042-0.162h-9.427l0.857-4.955H260.04z"/>
	</g>
</g>
</svg>
