<?xml version="1.0" encoding="utf-8"?>
<!-- Generator: Adobe Illustrator 16.0.3, SVG Export Plug-In . SVG Version: 6.00 Build 0)  -->
<!DOCTYPE svg PUBLIC "-//W3C//DTD SVG 1.1//EN" "http://www.w3.org/Graphics/SVG/1.1/DTD/svg11.dtd">
<svg version="1.1" id="Ebene_1" xmlns="http://www.w3.org/2000/svg" xmlns:xlink="http://www.w3.org/1999/xlink" x="0px" y="0px"
	 width="145.597px" height="52.167px" viewBox="0 0 145.597 52.167" enable-background="new 0 0 145.597 52.167"
	 xml:space="preserve">
<g>
	<g>
		<path fill="#009FE3" d="M14.845,20.703h8.742v12.592c-1.36,0.437-2.744,0.768-4.151,0.991c-1.407,0.225-3.037,0.337-4.89,0.337
			c-3.893,0-6.924-1.166-9.093-3.498c-2.169-2.331-3.254-5.599-3.254-9.802c0-2.692,0.536-5.051,1.609-7.075
			c1.073-2.025,2.618-3.571,4.634-4.64c2.017-1.069,4.38-1.604,7.088-1.604c2.744,0,5.3,0.508,7.668,1.523l-1.161,2.656
			c-2.322-0.991-4.556-1.487-6.701-1.487c-3.131,0-5.576,0.938-7.334,2.815s-2.638,4.48-2.638,7.811
			c0,3.494,0.847,6.145,2.542,7.951c1.694,1.807,4.183,2.71,7.466,2.71c1.782,0,3.523-0.207,5.224-0.62v-7.97h-5.751V20.703z"/>
	</g>
	<g>
		<path fill="#009FE3" d="M44.27,27.379c0,2.278-0.821,4.055-2.462,5.33s-3.87,1.913-6.684,1.913c-3.049,0-5.394-0.396-7.036-1.187
			v-2.904c1.056,0.448,2.205,0.803,3.448,1.063c1.243,0.26,2.474,0.39,3.693,0.39c1.993,0,3.494-0.381,4.503-1.143
			c1.008-0.762,1.512-1.821,1.512-3.179c0-0.897-0.179-1.632-0.536-2.205c-0.358-0.572-0.956-1.101-1.794-1.585
			c-0.839-0.484-2.114-1.033-3.826-1.647c-2.392-0.861-4.101-1.883-5.127-3.063c-1.026-1.181-1.539-2.721-1.539-4.622
			c0-1.995,0.744-3.583,2.233-4.764s3.459-1.771,5.91-1.771c2.556,0,4.907,0.473,7.053,1.417l-0.932,2.621
			c-2.123-0.897-4.186-1.346-6.191-1.346c-1.583,0-2.82,0.343-3.711,1.027s-1.337,1.635-1.337,2.851
			c0,0.897,0.164,1.633,0.493,2.205c0.328,0.573,0.882,1.098,1.662,1.576s1.973,1.007,3.579,1.585
			c2.697,0.969,4.553,2.008,5.567,3.117S44.27,25.608,44.27,27.379z"/>
	</g>
	<g>
		<path fill="#009FE3" d="M65.699,34.268l-3.201-8.235H52.191l-3.166,8.235H46L56.166,8.27h2.516l10.113,25.998H65.699z
			 M61.565,23.324l-2.99-8.022c-0.387-1.016-0.786-2.261-1.196-3.737c-0.258,1.134-0.627,2.38-1.108,3.737l-3.025,8.022H61.565z"/>
	</g>
	<g>
		<path fill="#3C3C3B" d="M87.363,27.299c0,2.268-0.547,4.038-1.639,5.313s-2.6,1.912-4.521,1.912c-1.211,0-2.277-0.294-3.2-0.883
			c-0.923-0.588-1.63-1.432-2.121-2.531c-0.491-1.1-0.737-2.37-0.737-3.811c0-2.268,0.546-4.034,1.638-5.301
			c1.092-1.266,2.591-1.898,4.496-1.898c1.896,0,3.385,0.642,4.465,1.924C86.823,23.307,87.363,25.066,87.363,27.299z
			 M76.466,27.299c0,1.909,0.417,3.399,1.251,4.469c0.834,1.07,2.013,1.604,3.537,1.604c1.524,0,2.703-0.534,3.537-1.604
			c0.834-1.069,1.251-2.56,1.251-4.469c0-1.918-0.421-3.406-1.264-4.463s-2.025-1.586-3.55-1.586c-1.523,0-2.698,0.526-3.524,1.579
			C76.879,23.883,76.466,25.373,76.466,27.299z"/>
	</g>
	<g>
		<path fill="#3C3C3B" d="M100.813,34.268v-9.015c0-1.398-0.292-2.415-0.876-3.05s-1.49-0.953-2.719-0.953
			c-1.65,0-2.859,0.42-3.625,1.26c-0.767,0.84-1.149,2.201-1.149,4.086v7.672h-1.257V20.369h1.066l0.241,1.905h0.076
			c0.897-1.449,2.493-2.174,4.788-2.174c3.133,0,4.699,1.692,4.699,5.076v9.092H100.813z"/>
	</g>
	<g>
		<path fill="#3C3C3B" d="M107.79,34.268h-1.257V14.372h1.257V34.268z"/>
	</g>
	<g>
		<path fill="#3C3C3B" d="M112.232,16.506c0-0.818,0.268-1.228,0.801-1.228c0.262,0,0.467,0.107,0.615,0.32s0.223,0.516,0.223,0.907
			c0,0.384-0.074,0.687-0.223,0.908s-0.354,0.332-0.615,0.332C112.5,17.747,112.232,17.333,112.232,16.506z M113.668,34.268h-1.258
			V20.369h1.258V34.268z"/>
	</g>
	<g>
		<path fill="#3C3C3B" d="M127.915,34.268v-9.015c0-1.398-0.292-2.415-0.876-3.05s-1.49-0.953-2.718-0.953
			c-1.651,0-2.859,0.42-3.626,1.26s-1.149,2.201-1.149,4.086v7.672h-1.257V20.369h1.066l0.241,1.905h0.076
			c0.897-1.449,2.494-2.174,4.788-2.174c3.133,0,4.699,1.692,4.699,5.076v9.092H127.915z"/>
	</g>
	<g>
		<path fill="#3C3C3B" d="M139.209,34.524c-2.007,0-3.571-0.622-4.692-1.867c-1.122-1.244-1.683-2.987-1.683-5.229
			c0-2.217,0.541-3.992,1.625-5.326s2.544-2.001,4.382-2.001c1.625,0,2.908,0.571,3.848,1.713c0.94,1.143,1.41,2.694,1.41,4.655
			v1.022h-9.944c0.017,1.91,0.459,3.367,1.327,4.373s2.11,1.509,3.728,1.509c0.787,0,1.479-0.055,2.076-0.166
			c0.597-0.11,1.353-0.35,2.267-0.716v1.15c-0.778,0.342-1.498,0.574-2.158,0.697C140.732,34.461,140.005,34.524,139.209,34.524z
			 M138.841,21.225c-1.329,0-2.396,0.441-3.2,1.323c-0.805,0.883-1.274,2.155-1.41,3.817h8.534c0-1.611-0.347-2.871-1.041-3.778
			C141.029,21.679,140.068,21.225,138.841,21.225z"/>
	</g>
	<g>
		<path fill="#3C3C3B" d="M5.95,46.866h2.167v2.7C7.55,49.809,6.91,49.93,6.2,49.93c-0.928,0-1.639-0.264-2.133-0.791
			c-0.495-0.528-0.742-1.275-0.742-2.241c0-0.602,0.123-1.136,0.368-1.601c0.245-0.466,0.596-0.825,1.053-1.079
			s0.982-0.381,1.574-0.381c0.641,0,1.216,0.119,1.725,0.356l-0.164,0.373c-0.51-0.238-1.038-0.356-1.585-0.356
			c-0.774,0-1.389,0.24-1.843,0.723c-0.454,0.481-0.682,1.131-0.682,1.949c0,0.891,0.216,1.561,0.647,2.01s1.065,0.674,1.901,0.674
			c0.542,0,1.001-0.077,1.379-0.23v-2.081H5.95V46.866z"/>
		<path fill="#3C3C3B" d="M11.258,49.93c-0.636,0-1.131-0.197-1.486-0.591c-0.354-0.395-0.532-0.946-0.532-1.656
			c0-0.701,0.172-1.264,0.515-1.686c0.343-0.423,0.806-0.634,1.387-0.634c0.515,0,0.921,0.181,1.219,0.543
			c0.297,0.361,0.446,0.853,0.446,1.473v0.324H9.657c0.006,0.604,0.146,1.066,0.42,1.385c0.275,0.318,0.668,0.478,1.181,0.478
			c0.249,0,0.468-0.018,0.657-0.053c0.188-0.035,0.428-0.11,0.718-0.227v0.364c-0.247,0.107-0.475,0.182-0.684,0.221
			S11.51,49.93,11.258,49.93z M11.141,45.72c-0.421,0-0.759,0.14-1.013,0.419c-0.255,0.279-0.403,0.682-0.446,1.208h2.701
			c0-0.51-0.109-0.908-0.329-1.196C11.834,45.864,11.529,45.72,11.141,45.72z"/>
		<path fill="#3C3C3B" d="M16.721,48.704c0,0.394-0.148,0.697-0.446,0.909c-0.298,0.211-0.72,0.317-1.267,0.317
			c-0.584,0-1.048-0.091-1.391-0.271v-0.433c0.439,0.221,0.903,0.332,1.391,0.332c0.432,0,0.76-0.072,0.983-0.217
			s0.336-0.337,0.336-0.577c0-0.221-0.09-0.407-0.268-0.559c-0.179-0.151-0.472-0.3-0.879-0.445
			c-0.437-0.159-0.743-0.296-0.92-0.411c-0.178-0.114-0.311-0.244-0.4-0.389c-0.09-0.144-0.135-0.32-0.135-0.528
			c0-0.329,0.138-0.589,0.412-0.781c0.274-0.191,0.658-0.287,1.151-0.287c0.472,0,0.92,0.089,1.343,0.268l-0.148,0.364
			c-0.429-0.179-0.827-0.268-1.194-0.268c-0.356,0-0.639,0.06-0.848,0.179c-0.209,0.118-0.313,0.283-0.313,0.493
			c0,0.229,0.081,0.413,0.243,0.551s0.479,0.292,0.95,0.462c0.395,0.143,0.681,0.271,0.86,0.386c0.18,0.115,0.314,0.245,0.404,0.391
			C16.676,48.335,16.721,48.506,16.721,48.704z"/>
		<path fill="#3C3C3B" d="M18.192,45.449v2.85c0,0.443,0.093,0.765,0.277,0.966c0.186,0.201,0.472,0.302,0.86,0.302
			c0.521,0,0.903-0.133,1.148-0.396c0.245-0.265,0.367-0.695,0.367-1.292v-2.429h0.395v4.4h-0.338l-0.072-0.607h-0.024
			c-0.284,0.459-0.789,0.688-1.516,0.688c-0.994,0-1.491-0.536-1.491-1.607v-2.874H18.192z"/>
		<path fill="#3C3C3B" d="M25.751,49.849v-2.854c0-0.443-0.093-0.765-0.277-0.966c-0.186-0.201-0.472-0.302-0.86-0.302
			c-0.522,0-0.905,0.133-1.148,0.399c-0.242,0.266-0.363,0.696-0.363,1.293v2.429h-0.398v-4.4h0.338l0.076,0.604h0.024
			c0.284-0.459,0.789-0.688,1.516-0.688c0.992,0,1.487,0.536,1.487,1.607v2.878H25.751z"/>
		<path fill="#3C3C3B" d="M29.16,45.364c0.316,0,0.59,0.059,0.82,0.174c0.23,0.116,0.437,0.314,0.619,0.596h0.023
			c-0.016-0.34-0.023-0.674-0.023-1V43.55h0.394v6.299h-0.262l-0.1-0.672H30.6c-0.333,0.502-0.81,0.753-1.432,0.753
			c-0.604,0-1.064-0.188-1.383-0.566c-0.319-0.378-0.479-0.929-0.479-1.652c0-0.761,0.158-1.342,0.475-1.744
			S28.557,45.364,29.16,45.364z M29.16,45.728c-0.478,0-0.836,0.169-1.075,0.506c-0.24,0.338-0.36,0.827-0.36,1.47
			c0,1.247,0.481,1.87,1.443,1.87c0.493,0,0.855-0.145,1.086-0.433c0.23-0.289,0.346-0.766,0.346-1.43v-0.068
			c0-0.681-0.113-1.169-0.34-1.468C30.033,45.877,29.667,45.728,29.16,45.728z"/>
		<path fill="#3C3C3B" d="M34.945,45.449v2.85c0,0.443,0.093,0.765,0.277,0.966c0.186,0.201,0.472,0.302,0.86,0.302
			c0.521,0,0.903-0.133,1.148-0.396c0.245-0.265,0.367-0.695,0.367-1.292v-2.429h0.395v4.4h-0.338l-0.072-0.607h-0.024
			c-0.284,0.459-0.789,0.688-1.516,0.688c-0.994,0-1.491-0.536-1.491-1.607v-2.874H34.945z"/>
		<path fill="#3C3C3B" d="M42.504,49.849v-2.854c0-0.443-0.093-0.765-0.277-0.966c-0.186-0.201-0.472-0.302-0.86-0.302
			c-0.522,0-0.905,0.133-1.148,0.399c-0.242,0.266-0.363,0.696-0.363,1.293v2.429h-0.398v-4.4h0.338l0.076,0.604h0.024
			c0.284-0.459,0.789-0.688,1.516-0.688c0.992,0,1.487,0.536,1.487,1.607v2.878H42.504z"/>
		<path fill="#3C3C3B" d="M45.913,45.364c0.316,0,0.59,0.059,0.82,0.174c0.23,0.116,0.437,0.314,0.619,0.596h0.023
			c-0.016-0.34-0.023-0.674-0.023-1V43.55h0.394v6.299h-0.262l-0.1-0.672h-0.032c-0.333,0.502-0.81,0.753-1.432,0.753
			c-0.604,0-1.064-0.188-1.383-0.566c-0.319-0.378-0.479-0.929-0.479-1.652c0-0.761,0.158-1.342,0.475-1.744
			S45.31,45.364,45.913,45.364z M45.913,45.728c-0.478,0-0.836,0.169-1.075,0.506c-0.24,0.338-0.36,0.827-0.36,1.47
			c0,1.247,0.481,1.87,1.443,1.87c0.493,0,0.855-0.145,1.086-0.433c0.23-0.289,0.346-0.766,0.346-1.43v-0.068
			c0-0.681-0.113-1.169-0.34-1.468C46.786,45.877,46.42,45.728,45.913,45.728z"/>
		<path fill="#3C3C3B" d="M54.063,48.704c0,0.394-0.148,0.697-0.446,0.909c-0.298,0.211-0.72,0.317-1.267,0.317
			c-0.584,0-1.048-0.091-1.391-0.271v-0.433c0.439,0.221,0.903,0.332,1.391,0.332c0.432,0,0.76-0.072,0.983-0.217
			s0.336-0.337,0.336-0.577c0-0.221-0.09-0.407-0.268-0.559c-0.179-0.151-0.472-0.3-0.879-0.445
			c-0.437-0.159-0.743-0.296-0.92-0.411c-0.178-0.114-0.311-0.244-0.4-0.389c-0.09-0.144-0.135-0.32-0.135-0.528
			c0-0.329,0.138-0.589,0.412-0.781c0.274-0.191,0.658-0.287,1.151-0.287c0.472,0,0.92,0.089,1.343,0.268l-0.148,0.364
			c-0.429-0.179-0.827-0.268-1.194-0.268c-0.356,0-0.639,0.06-0.848,0.179c-0.209,0.118-0.313,0.283-0.313,0.493
			c0,0.229,0.081,0.413,0.243,0.551s0.479,0.292,0.95,0.462c0.395,0.143,0.681,0.271,0.86,0.386c0.18,0.115,0.314,0.245,0.404,0.391
			C54.018,48.335,54.063,48.506,54.063,48.704z"/>
		<path fill="#3C3C3B" d="M56.343,49.574c0.252,0,0.472-0.021,0.659-0.064v0.323c-0.193,0.065-0.415,0.098-0.667,0.098
			c-0.387,0-0.671-0.104-0.854-0.312s-0.275-0.534-0.275-0.979v-2.842h-0.647v-0.235l0.647-0.182l0.201-0.996h0.205v1.064h1.282
			v0.349h-1.282v2.785c0,0.337,0.059,0.587,0.177,0.748C55.905,49.493,56.091,49.574,56.343,49.574z"/>
		<path fill="#3C3C3B" d="M59.667,45.364c0.186,0,0.384,0.019,0.596,0.057l-0.077,0.385c-0.182-0.046-0.371-0.069-0.566-0.069
			c-0.373,0-0.679,0.16-0.917,0.479s-0.357,0.72-0.357,1.206v2.429h-0.398v-4.4h0.338l0.04,0.794h0.028
			c0.18-0.324,0.371-0.552,0.575-0.683C59.131,45.429,59.378,45.364,59.667,45.364z"/>
		<path fill="#3C3C3B" d="M62.916,49.93c-0.636,0-1.131-0.197-1.486-0.591c-0.354-0.395-0.532-0.946-0.532-1.656
			c0-0.701,0.172-1.264,0.515-1.686c0.343-0.423,0.806-0.634,1.387-0.634c0.515,0,0.921,0.181,1.219,0.543
			c0.297,0.361,0.446,0.853,0.446,1.473v0.324h-3.148c0.006,0.604,0.146,1.066,0.42,1.385c0.275,0.318,0.668,0.478,1.181,0.478
			c0.249,0,0.468-0.018,0.657-0.053c0.188-0.035,0.428-0.11,0.718-0.227v0.364c-0.247,0.107-0.475,0.182-0.684,0.221
			S63.168,49.93,62.916,49.93z M62.799,45.72c-0.421,0-0.759,0.14-1.013,0.419c-0.255,0.279-0.403,0.682-0.446,1.208h2.701
			c0-0.51-0.109-0.908-0.329-1.196C63.492,45.864,63.188,45.72,62.799,45.72z"/>
		<path fill="#3C3C3B" d="M68.379,48.704c0,0.394-0.148,0.697-0.446,0.909c-0.298,0.211-0.72,0.317-1.267,0.317
			c-0.584,0-1.048-0.091-1.391-0.271v-0.433c0.439,0.221,0.903,0.332,1.391,0.332c0.432,0,0.76-0.072,0.983-0.217
			s0.336-0.337,0.336-0.577c0-0.221-0.09-0.407-0.268-0.559c-0.179-0.151-0.472-0.3-0.879-0.445
			c-0.437-0.159-0.743-0.296-0.92-0.411c-0.178-0.114-0.311-0.244-0.4-0.389c-0.09-0.144-0.135-0.32-0.135-0.528
			c0-0.329,0.138-0.589,0.412-0.781c0.274-0.191,0.658-0.287,1.151-0.287c0.472,0,0.92,0.089,1.343,0.268l-0.148,0.364
			c-0.429-0.179-0.827-0.268-1.194-0.268c-0.356,0-0.639,0.06-0.848,0.179c-0.209,0.118-0.313,0.283-0.313,0.493
			c0,0.229,0.081,0.413,0.243,0.551s0.479,0.292,0.95,0.462c0.395,0.143,0.681,0.271,0.86,0.386c0.18,0.115,0.314,0.245,0.404,0.391
			C68.334,48.335,68.379,48.506,68.379,48.704z"/>
		<path fill="#3C3C3B" d="M72.215,48.704c0,0.394-0.148,0.697-0.446,0.909c-0.298,0.211-0.72,0.317-1.267,0.317
			c-0.584,0-1.048-0.091-1.391-0.271v-0.433c0.439,0.221,0.903,0.332,1.391,0.332c0.432,0,0.76-0.072,0.983-0.217
			s0.336-0.337,0.336-0.577c0-0.221-0.09-0.407-0.268-0.559c-0.179-0.151-0.472-0.3-0.879-0.445
			c-0.437-0.159-0.743-0.296-0.92-0.411c-0.178-0.114-0.311-0.244-0.4-0.389c-0.09-0.144-0.135-0.32-0.135-0.528
			c0-0.329,0.138-0.589,0.412-0.781c0.274-0.191,0.658-0.287,1.151-0.287c0.472,0,0.92,0.089,1.343,0.268l-0.148,0.364
			c-0.429-0.179-0.827-0.268-1.194-0.268c-0.356,0-0.639,0.06-0.848,0.179c-0.209,0.118-0.313,0.283-0.313,0.493
			c0,0.229,0.081,0.413,0.243,0.551s0.479,0.292,0.95,0.462c0.395,0.143,0.681,0.271,0.86,0.386c0.18,0.115,0.314,0.245,0.404,0.391
			C72.17,48.335,72.215,48.506,72.215,48.704z"/>
		<path fill="#3C3C3B" d="M74.964,45.797h-1.028v4.052h-0.398v-4.052h-0.813v-0.235l0.813-0.149v-0.34
			c0-0.54,0.099-0.937,0.296-1.188c0.196-0.252,0.519-0.379,0.967-0.379c0.241,0,0.482,0.037,0.724,0.109l-0.093,0.349
			c-0.215-0.067-0.428-0.102-0.64-0.102c-0.311,0-0.531,0.093-0.661,0.277c-0.13,0.186-0.194,0.485-0.194,0.901v0.408h1.028V45.797z
			"/>
		<path fill="#3C3C3B" d="M77.529,45.364c0.186,0,0.384,0.019,0.596,0.057l-0.077,0.385c-0.182-0.046-0.371-0.069-0.566-0.069
			c-0.373,0-0.679,0.16-0.917,0.479s-0.357,0.72-0.357,1.206v2.429h-0.398v-4.4h0.338l0.04,0.794h0.028
			c0.18-0.324,0.371-0.552,0.575-0.683C76.993,45.429,77.24,45.364,77.529,45.364z"/>
		<path fill="#3C3C3B" d="M80.778,49.93c-0.636,0-1.131-0.197-1.486-0.591c-0.354-0.395-0.532-0.946-0.532-1.656
			c0-0.701,0.172-1.264,0.515-1.686c0.343-0.423,0.806-0.634,1.387-0.634c0.515,0,0.921,0.181,1.219,0.543
			c0.297,0.361,0.446,0.853,0.446,1.473v0.324h-3.148c0.006,0.604,0.146,1.066,0.42,1.385c0.275,0.318,0.668,0.478,1.181,0.478
			c0.249,0,0.468-0.018,0.657-0.053c0.188-0.035,0.428-0.11,0.718-0.227v0.364c-0.247,0.107-0.475,0.182-0.684,0.221
			S81.03,49.93,80.778,49.93z M80.661,45.72c-0.421,0-0.759,0.14-1.013,0.419c-0.255,0.279-0.403,0.682-0.446,1.208h2.701
			c0-0.51-0.109-0.908-0.329-1.196C81.354,45.864,81.05,45.72,80.661,45.72z"/>
		<path fill="#3C3C3B" d="M83.476,44.226c0-0.259,0.084-0.389,0.253-0.389c0.083,0,0.148,0.034,0.195,0.102s0.07,0.163,0.07,0.287
			c0,0.122-0.023,0.218-0.07,0.288s-0.112,0.104-0.195,0.104C83.56,44.619,83.476,44.488,83.476,44.226z M83.93,49.849h-0.398v-4.4
			h0.398V49.849z"/>
		<path fill="#3C3C3B" d="M90.186,49.849l-0.101-0.696h-0.031c-0.221,0.283-0.446,0.483-0.678,0.602
			c-0.232,0.117-0.506,0.176-0.822,0.176c-0.429,0-0.763-0.11-1.001-0.332s-0.358-0.527-0.358-0.919c0-0.429,0.178-0.763,0.533-1
			s0.869-0.362,1.542-0.376l0.832-0.024v-0.292c0-0.418-0.084-0.733-0.253-0.947c-0.169-0.213-0.441-0.319-0.816-0.319
			c-0.405,0-0.824,0.113-1.259,0.34l-0.148-0.348c0.479-0.228,0.954-0.341,1.423-0.341c0.48,0,0.839,0.126,1.076,0.377
			c0.236,0.251,0.355,0.643,0.355,1.174v2.927H90.186z M88.578,49.566c0.466,0,0.834-0.135,1.104-0.403s0.403-0.642,0.403-1.119
			v-0.433l-0.764,0.032c-0.613,0.029-1.051,0.126-1.313,0.289c-0.261,0.163-0.392,0.418-0.392,0.764
			c0,0.274,0.083,0.489,0.251,0.642S88.272,49.566,88.578,49.566z"/>
		<path fill="#3C3C3B" d="M97.354,49.849v-2.887c0-0.429-0.083-0.741-0.249-0.938s-0.421-0.296-0.764-0.296
			c-0.448,0-0.779,0.124-0.993,0.373c-0.215,0.248-0.322,0.638-0.322,1.17v2.578h-0.405v-3.008c0-0.742-0.338-1.113-1.014-1.113
			c-0.458,0-0.792,0.135-1.001,0.403s-0.313,0.698-0.313,1.289v2.429h-0.398v-4.4h0.33l0.084,0.604h0.024
			c0.121-0.219,0.292-0.388,0.515-0.508s0.468-0.181,0.735-0.181c0.689,0,1.132,0.261,1.327,0.781h0.016
			c0.143-0.251,0.333-0.443,0.573-0.579c0.24-0.135,0.513-0.202,0.818-0.202c0.477,0,0.835,0.128,1.073,0.385
			c0.238,0.256,0.357,0.664,0.357,1.223v2.878H97.354z"/>
		<path fill="#3C3C3B" d="M104.232,47.76h-2.388l-0.82,2.089h-0.454l2.364-5.942h0.261l2.316,5.942h-0.463L104.232,47.76z
			 M101.993,47.388h2.104l-0.801-2.134c-0.066-0.167-0.147-0.399-0.241-0.696c-0.072,0.26-0.151,0.494-0.237,0.705L101.993,47.388z"
			/>
		<path fill="#3C3C3B" d="M107.964,45.364c0.186,0,0.384,0.019,0.596,0.057l-0.077,0.385c-0.182-0.046-0.371-0.069-0.566-0.069
			c-0.373,0-0.679,0.16-0.917,0.479s-0.357,0.72-0.357,1.206v2.429h-0.398v-4.4h0.338l0.04,0.794h0.028
			c0.18-0.324,0.371-0.552,0.575-0.683C107.428,45.429,107.675,45.364,107.964,45.364z"/>
		<path fill="#3C3C3B" d="M111.293,45.364c0.611,0,1.071,0.193,1.381,0.581s0.465,0.953,0.465,1.698
			c0,0.731-0.163,1.295-0.489,1.692c-0.325,0.396-0.783,0.595-1.373,0.595c-0.311,0-0.591-0.064-0.84-0.194
			s-0.446-0.313-0.591-0.551h-0.036l-0.112,0.664h-0.25V43.55h0.398v1.583c0,0.237-0.006,0.456-0.017,0.655l-0.012,0.345h0.028
			c0.166-0.265,0.366-0.459,0.601-0.583S110.963,45.364,111.293,45.364z M111.285,45.728c-0.515,0-0.884,0.148-1.105,0.445
			c-0.223,0.297-0.334,0.787-0.334,1.47v0.068c0,0.664,0.116,1.141,0.348,1.43c0.231,0.288,0.593,0.433,1.083,0.433
			c0.478,0,0.837-0.168,1.078-0.504s0.361-0.814,0.361-1.435C112.716,46.364,112.239,45.728,111.285,45.728z"/>
		<path fill="#3C3C3B" d="M116.113,49.93c-0.636,0-1.131-0.197-1.486-0.591c-0.354-0.395-0.532-0.946-0.532-1.656
			c0-0.701,0.172-1.264,0.515-1.686c0.343-0.423,0.806-0.634,1.387-0.634c0.515,0,0.921,0.181,1.219,0.543
			c0.297,0.361,0.446,0.853,0.446,1.473v0.324h-3.148c0.006,0.604,0.146,1.066,0.42,1.385c0.275,0.318,0.668,0.478,1.181,0.478
			c0.249,0,0.468-0.018,0.657-0.053c0.188-0.035,0.428-0.11,0.718-0.227v0.364c-0.247,0.107-0.475,0.182-0.684,0.221
			S116.365,49.93,116.113,49.93z M115.996,45.72c-0.421,0-0.759,0.14-1.013,0.419c-0.255,0.279-0.403,0.682-0.446,1.208h2.701
			c0-0.51-0.109-0.908-0.329-1.196C116.689,45.864,116.385,45.72,115.996,45.72z"/>
		<path fill="#3C3C3B" d="M118.812,44.226c0-0.259,0.084-0.389,0.253-0.389c0.083,0,0.148,0.034,0.195,0.102s0.07,0.163,0.07,0.287
			c0,0.122-0.023,0.218-0.07,0.288s-0.112,0.104-0.195,0.104C118.896,44.619,118.812,44.488,118.812,44.226z M119.266,49.849h-0.398
			v-4.4h0.398V49.849z"/>
		<path fill="#3C3C3B" d="M121.883,49.574c0.252,0,0.472-0.021,0.659-0.064v0.323c-0.193,0.065-0.415,0.098-0.667,0.098
			c-0.387,0-0.671-0.104-0.854-0.312s-0.275-0.534-0.275-0.979v-2.842h-0.647v-0.235l0.647-0.182l0.201-0.996h0.205v1.064h1.282
			v0.349h-1.282v2.785c0,0.337,0.059,0.587,0.177,0.748C121.445,49.493,121.631,49.574,121.883,49.574z"/>
		<path fill="#3C3C3B" d="M126.196,48.704c0,0.394-0.148,0.697-0.446,0.909c-0.298,0.211-0.72,0.317-1.267,0.317
			c-0.584,0-1.048-0.091-1.391-0.271v-0.433c0.439,0.221,0.903,0.332,1.391,0.332c0.432,0,0.76-0.072,0.983-0.217
			s0.336-0.337,0.336-0.577c0-0.221-0.09-0.407-0.268-0.559c-0.179-0.151-0.472-0.3-0.879-0.445
			c-0.437-0.159-0.743-0.296-0.92-0.411c-0.178-0.114-0.311-0.244-0.4-0.389c-0.09-0.144-0.135-0.32-0.135-0.528
			c0-0.329,0.138-0.589,0.412-0.781c0.274-0.191,0.658-0.287,1.151-0.287c0.472,0,0.92,0.089,1.343,0.268l-0.148,0.364
			c-0.429-0.179-0.827-0.268-1.194-0.268c-0.356,0-0.639,0.06-0.848,0.179c-0.209,0.118-0.313,0.283-0.313,0.493
			c0,0.229,0.081,0.413,0.243,0.551s0.479,0.292,0.95,0.462c0.395,0.143,0.681,0.271,0.86,0.386c0.18,0.115,0.314,0.245,0.404,0.391
			C126.151,48.335,126.196,48.506,126.196,48.704z"/>
		<path fill="#3C3C3B" d="M129.191,49.93c-0.673,0-1.164-0.254-1.472-0.761h-0.028l0.012,0.34c0.011,0.199,0.017,0.418,0.017,0.655
			v1.676h-0.398v-6.392h0.338l0.076,0.628h0.024c0.3-0.476,0.78-0.713,1.439-0.713c0.59,0,1.039,0.195,1.349,0.585
			s0.465,0.957,0.465,1.702c0,0.724-0.163,1.284-0.489,1.682C130.198,49.731,129.754,49.93,129.191,49.93z M129.183,49.574
			c0.448,0,0.794-0.167,1.04-0.502c0.245-0.335,0.367-0.803,0.367-1.404c0-1.293-0.464-1.939-1.391-1.939
			c-0.51,0-0.884,0.142-1.122,0.423c-0.238,0.282-0.357,0.742-0.357,1.379v0.129c0,0.688,0.114,1.18,0.344,1.474
			C128.292,49.427,128.666,49.574,129.183,49.574z"/>
		<path fill="#3C3C3B" d="M132.621,49.849h-0.398V43.55h0.398V49.849z"/>
		<path fill="#3C3C3B" d="M136.737,49.849l-0.101-0.696h-0.031c-0.221,0.283-0.446,0.483-0.678,0.602
			c-0.232,0.117-0.506,0.176-0.822,0.176c-0.429,0-0.763-0.11-1.001-0.332s-0.358-0.527-0.358-0.919c0-0.429,0.178-0.763,0.533-1
			s0.869-0.362,1.542-0.376l0.832-0.024v-0.292c0-0.418-0.084-0.733-0.253-0.947c-0.169-0.213-0.441-0.319-0.816-0.319
			c-0.405,0-0.824,0.113-1.259,0.34l-0.148-0.348c0.479-0.228,0.954-0.341,1.423-0.341c0.48,0,0.839,0.126,1.076,0.377
			c0.236,0.251,0.355,0.643,0.355,1.174v2.927H136.737z M135.13,49.566c0.466,0,0.834-0.135,1.104-0.403s0.403-0.642,0.403-1.119
			v-0.433l-0.764,0.032c-0.613,0.029-1.051,0.126-1.313,0.289c-0.261,0.163-0.392,0.418-0.392,0.764
			c0,0.274,0.083,0.489,0.251,0.642S134.824,49.566,135.13,49.566z"/>
		<path fill="#3C3C3B" d="M139.601,49.574c0.252,0,0.472-0.021,0.659-0.064v0.323c-0.193,0.065-0.415,0.098-0.667,0.098
			c-0.387,0-0.671-0.104-0.854-0.312s-0.275-0.534-0.275-0.979v-2.842h-0.647v-0.235l0.647-0.182l0.201-0.996h0.205v1.064h1.282
			v0.349h-1.282v2.785c0,0.337,0.059,0.587,0.177,0.748C139.163,49.493,139.349,49.574,139.601,49.574z"/>
		<path fill="#3C3C3B" d="M143.922,49.849h-3.119v-0.255l2.593-3.789h-2.404v-0.356h2.923v0.255l-2.609,3.789h2.617V49.849z"/>
	</g>
	<g>
		<path fill="#009640" d="M73.499,8.016h5.399v1.82h-5.399v5.621h-1.821V9.836h-5.373v-1.82h5.373V2.369h1.821V8.016z"/>
	</g>
</g>
</svg>
