<?xml version="1.0" encoding="utf-8"?>
<!-- Generator: Adobe Illustrator 16.0.3, SVG Export Plug-In . SVG Version: 6.00 Build 0)  -->
<!DOCTYPE svg PUBLIC "-//W3C//DTD SVG 1.1//EN" "http://www.w3.org/Graphics/SVG/1.1/DTD/svg11.dtd">
<svg version="1.1" id="Ebene_1" xmlns="http://www.w3.org/2000/svg" xmlns:xlink="http://www.w3.org/1999/xlink" x="0px" y="0px"
	 width="80.793px" height="48.799px" viewBox="0 0 80.793 48.799" enable-background="new 0 0 80.793 48.799" xml:space="preserve">
<g>
	<g>
		<path fill="#009FE3" d="M14.845,25.405h8.742v12.592c-1.36,0.438-2.744,0.768-4.151,0.992s-3.037,0.336-4.89,0.336
			c-3.893,0-6.924-1.166-9.093-3.498c-2.169-2.33-3.254-5.598-3.254-9.801c0-2.693,0.536-5.051,1.609-7.076
			c1.073-2.025,2.618-3.571,4.634-4.64c2.017-1.069,4.38-1.604,7.088-1.604c2.744,0,5.3,0.508,7.668,1.523l-1.161,2.656
			c-2.322-0.991-4.556-1.487-6.701-1.487c-3.131,0-5.576,0.938-7.334,2.815s-2.638,4.48-2.638,7.811
			c0,3.494,0.847,6.145,2.542,7.951c1.694,1.807,4.183,2.709,7.466,2.709c1.782,0,3.523-0.207,5.224-0.619v-7.971h-5.751V25.405z"/>
	</g>
	<g>
		<path fill="#009FE3" d="M44.27,32.083c0,2.277-0.821,4.055-2.462,5.33s-3.87,1.912-6.684,1.912c-3.049,0-5.394-0.395-7.036-1.186
			v-2.904c1.056,0.447,2.205,0.803,3.448,1.063c1.243,0.26,2.474,0.389,3.693,0.389c1.993,0,3.494-0.381,4.503-1.143
			c1.008-0.762,1.512-1.82,1.512-3.178c0-0.898-0.179-1.633-0.536-2.205c-0.358-0.572-0.956-1.102-1.794-1.586
			c-0.839-0.484-2.114-1.033-3.826-1.646c-2.392-0.861-4.101-1.883-5.127-3.064c-1.026-1.181-1.539-2.721-1.539-4.622
			c0-1.995,0.744-3.583,2.233-4.764s3.459-1.771,5.91-1.771c2.556,0,4.907,0.473,7.053,1.417l-0.932,2.621
			c-2.123-0.897-4.186-1.346-6.191-1.346c-1.583,0-2.82,0.343-3.711,1.027s-1.337,1.635-1.337,2.851
			c0,0.897,0.164,1.633,0.493,2.205c0.328,0.573,0.882,1.098,1.662,1.576s1.973,1.007,3.579,1.584
			c2.697,0.969,4.553,2.008,5.567,3.117S44.27,30.311,44.27,32.083z"/>
	</g>
	<g>
		<path fill="#009FE3" d="M65.699,38.971l-3.201-8.236H52.191l-3.166,8.236H46l10.166-25.999h2.516l10.113,25.999H65.699z
			 M61.565,28.026l-2.99-8.022c-0.387-1.016-0.785-2.261-1.195-3.737c-0.258,1.134-0.627,2.38-1.107,3.737l-3.025,8.022H61.565z"/>
	</g>
	<g>
		<path fill="#009640" d="M71.948,14.804h-5.216v-2.349h5.216V7.072h2.359v5.383h5.229v2.349h-5.229v5.357h-2.359V14.804z"/>
	</g>
</g>
</svg>
