<?xml version="1.0" encoding="utf-8"?>
<!-- Generator: Adobe Illustrator 16.0.3, SVG Export Plug-In . SVG Version: 6.00 Build 0)  -->
<!DOCTYPE svg PUBLIC "-//W3C//DTD SVG 1.1//EN" "http://www.w3.org/Graphics/SVG/1.1/DTD/svg11.dtd">
<svg version="1.1" id="Ebene_1" xmlns="http://www.w3.org/2000/svg" xmlns:xlink="http://www.w3.org/1999/xlink" x="0px" y="0px"
	 width="741.566px" height="195.181px" viewBox="0 0 741.566 195.181" enable-background="new 0 0 741.566 195.181"
	 xml:space="preserve">
<g>
	<g>
		<path fill="#009FE3" d="M58.297,78.667h30.851v44.438c-4.801,1.542-9.684,2.709-14.649,3.5s-10.718,1.188-17.256,1.188
			c-13.739,0-24.437-4.114-32.092-12.344c-7.656-8.229-11.483-19.76-11.483-34.594c0-9.5,1.893-17.822,5.68-24.969
			c3.786-7.146,9.238-12.604,16.356-16.375c7.117-3.771,15.456-5.656,25.015-5.656c9.684,0,18.705,1.792,27.064,5.375l-4.097,9.375
			c-8.194-3.5-16.077-5.25-23.65-5.25c-11.049,0-19.677,3.313-25.885,9.938c-6.207,6.625-9.311,15.813-9.311,27.563
			c0,12.334,2.989,21.688,8.97,28.063c5.979,6.375,14.763,9.563,26.35,9.563c6.29,0,12.435-0.729,18.436-2.188V88.167H58.297V78.667
			z"/>
	</g>
	<g>
		<path fill="#009FE3" d="M162.141,102.229c0,8.042-2.897,14.313-8.69,18.813c-5.794,4.5-13.656,6.75-23.588,6.75
			c-10.76,0-19.036-1.396-24.83-4.188v-10.25c3.725,1.584,7.78,2.834,12.167,3.75c4.386,0.917,8.731,1.375,13.036,1.375
			c7.035,0,12.331-1.344,15.891-4.031c3.559-2.688,5.338-6.427,5.338-11.219c0-3.166-0.631-5.76-1.894-7.781
			c-1.263-2.021-3.373-3.885-6.332-5.594c-2.959-1.708-7.459-3.646-13.5-5.813c-8.442-3.041-14.474-6.646-18.095-10.813
			c-3.622-4.166-5.431-9.604-5.431-16.313c0-7.041,2.627-12.646,7.883-16.813c5.255-4.166,12.207-6.25,20.856-6.25
			c9.021,0,17.318,1.667,24.892,5l-3.29,9.25c-7.491-3.166-14.773-4.75-21.85-4.75c-5.587,0-9.953,1.209-13.098,3.625
			c-3.146,2.417-4.718,5.771-4.718,10.063c0,3.167,0.579,5.761,1.738,7.781c1.158,2.021,3.113,3.875,5.866,5.563
			c2.752,1.688,6.962,3.553,12.632,5.594c9.518,3.417,16.066,7.084,19.646,11C160.351,90.896,162.141,95.979,162.141,102.229z"/>
	</g>
	<g>
		<path fill="#009FE3" d="M237.769,126.542l-11.297-29.063h-36.375l-11.173,29.063h-10.677l35.878-91.75h8.876l35.692,91.75H237.769
			z M223.182,87.917l-10.553-28.313c-1.366-3.583-2.773-7.979-4.221-13.188c-0.911,4-2.214,8.396-3.911,13.188l-10.677,28.313
			H223.182z"/>
	</g>
	<g>
		<path fill="#3C3C3B" d="M328.455,101.947c0,8.003-1.927,14.253-5.782,18.751s-9.173,6.746-15.956,6.746
			c-4.273,0-8.038-1.038-11.294-3.113c-3.257-2.076-5.752-5.055-7.485-8.936c-1.733-3.881-2.6-8.363-2.6-13.448
			c0-8.003,1.927-14.238,5.782-18.706s9.144-6.702,15.866-6.702c6.693,0,11.945,2.264,15.754,6.792
			C326.55,87.86,328.455,94.065,328.455,101.947z M290,101.947c0,6.739,1.472,11.997,4.415,15.772
			c2.942,3.775,7.104,5.663,12.482,5.663s9.539-1.888,12.482-5.663c2.943-3.775,4.415-9.033,4.415-15.772
			c0-6.77-1.487-12.019-4.459-15.75c-2.974-3.73-7.149-5.596-12.527-5.596s-9.524,1.858-12.438,5.573
			C291.457,89.892,290,95.148,290,101.947z"/>
	</g>
	<g>
		<path fill="#3C3C3B" d="M375.925,126.542V94.727c0-4.934-1.031-8.521-3.093-10.763c-2.062-2.241-5.259-3.362-9.591-3.362
			c-5.827,0-10.092,1.482-12.796,4.445c-2.705,2.963-4.056,7.77-4.056,14.418v27.077h-4.437V77.488h3.765l0.852,6.724h0.269
			c3.167-5.114,8.799-7.672,16.897-7.672c11.055,0,16.584,5.972,16.584,17.916v32.086H375.925z"/>
	</g>
	<g>
		<path fill="#3C3C3B" d="M400.545,126.542h-4.438V56.323h4.438V126.542z"/>
	</g>
	<g>
		<path fill="#3C3C3B" d="M416.224,63.859c0-2.888,0.941-4.332,2.824-4.332c0.926,0,1.65,0.376,2.174,1.128
			c0.522,0.752,0.784,1.821,0.784,3.204c0,1.354-0.262,2.422-0.784,3.204c-0.523,0.783-1.248,1.173-2.174,1.173
			C417.165,68.236,416.224,66.777,416.224,63.859z M421.289,126.542h-4.438V77.488h4.438V126.542z"/>
	</g>
	<g>
		<path fill="#3C3C3B" d="M471.569,126.542V94.727c0-4.934-1.031-8.521-3.093-10.763c-2.062-2.241-5.26-3.362-9.592-3.362
			c-5.826,0-10.092,1.482-12.796,4.445s-4.056,7.77-4.056,14.418v27.077h-4.438V77.488h3.765l0.852,6.724h0.27
			c3.166-5.114,8.799-7.672,16.896-7.672c11.056,0,16.584,5.972,16.584,17.916v32.086H471.569z"/>
	</g>
	<g>
		<path fill="#3C3C3B" d="M511.43,127.444c-7.081,0-12.602-2.195-16.561-6.589c-3.96-4.392-5.938-10.544-5.938-18.457
			c0-7.822,1.911-14.087,5.736-18.796c3.824-4.708,8.979-7.063,15.463-7.063c5.737,0,10.264,2.016,13.58,6.047
			c3.317,4.032,4.976,9.507,4.976,16.426v3.61h-35.094c0.06,6.739,1.62,11.884,4.684,15.434c3.063,3.551,7.447,5.325,13.154,5.325
			c2.779,0,5.222-0.195,7.328-0.587c2.106-0.391,4.773-1.232,8-2.526v4.062c-2.749,1.203-5.288,2.023-7.619,2.459
			C516.809,127.226,514.238,127.444,511.43,127.444z M510.13,80.511c-4.691,0-8.456,1.557-11.295,4.671s-4.497,7.604-4.975,13.47
			h30.119c0-5.686-1.226-10.131-3.676-13.335S514.462,80.511,510.13,80.511z"/>
	</g>
	<g>
		<path fill="#3C3C3B" d="M29.578,173.136h7.53v9.383c-1.975,0.844-4.196,1.266-6.664,1.266c-3.223,0-5.693-0.916-7.411-2.75
			c-1.719-1.833-2.578-4.429-2.578-7.785c0-2.092,0.426-3.946,1.278-5.563c0.852-1.618,2.072-2.867,3.66-3.749
			c1.588-0.881,3.411-1.322,5.469-1.322c2.226,0,4.224,0.413,5.993,1.238l-0.573,1.294c-1.77-0.825-3.604-1.238-5.504-1.238
			c-2.691,0-4.827,0.837-6.405,2.511s-2.368,3.932-2.368,6.773c0,3.095,0.75,5.423,2.249,6.983c1.5,1.562,3.702,2.343,6.608,2.343
			c1.881,0,3.479-0.268,4.792-0.802v-7.23h-6.077V173.136z"/>
		<path fill="#3C3C3B" d="M48.019,183.784c-2.207,0-3.928-0.685-5.162-2.054c-1.234-1.369-1.851-3.286-1.851-5.753
			c0-2.438,0.596-4.391,1.788-5.858c1.192-1.468,2.798-2.202,4.82-2.202c1.788,0,3.199,0.629,4.233,1.886
			c1.034,1.256,1.551,2.963,1.551,5.12v1.125H42.458c0.019,2.101,0.505,3.704,1.46,4.811s2.321,1.66,4.1,1.66
			c0.866,0,1.628-0.062,2.284-0.184c0.657-0.121,1.488-0.384,2.494-0.787v1.266c-0.857,0.375-1.648,0.631-2.375,0.767
			C49.695,183.716,48.894,183.784,48.019,183.784z M47.614,169.155c-1.462,0-2.636,0.485-3.521,1.456
			c-0.885,0.971-1.402,2.37-1.551,4.198h9.388c0-1.772-0.382-3.157-1.146-4.156S48.964,169.155,47.614,169.155z"/>
		<path fill="#3C3C3B" d="M67.004,179.522c0,1.369-0.517,2.422-1.551,3.157c-1.034,0.736-2.5,1.104-4.4,1.104
			c-2.031,0-3.642-0.314-4.834-0.942v-1.505c1.527,0.769,3.139,1.153,4.834,1.153c1.499,0,2.638-0.251,3.416-0.753
			c0.777-0.501,1.167-1.169,1.167-2.004c0-0.77-0.31-1.416-0.929-1.941c-0.619-0.525-1.637-1.041-3.052-1.547
			c-1.518-0.554-2.584-1.029-3.199-1.428s-1.078-0.849-1.39-1.351s-0.468-1.113-0.468-1.836c0-1.144,0.477-2.049,1.432-2.715
			s2.289-0.999,4.002-0.999c1.639,0,3.195,0.31,4.667,0.929l-0.517,1.266c-1.49-0.618-2.874-0.928-4.149-0.928
			c-1.239,0-2.221,0.206-2.947,0.619c-0.727,0.412-1.09,0.984-1.09,1.716c0,0.797,0.282,1.435,0.845,1.913s1.665,1.013,3.304,1.604
			c1.369,0.497,2.366,0.944,2.99,1.343c0.624,0.399,1.092,0.852,1.404,1.357C66.848,178.242,67.004,178.838,67.004,179.522z"/>
		<path fill="#3C3C3B" d="M72.117,168.213v9.902c0,1.538,0.321,2.656,0.964,3.355c0.643,0.698,1.639,1.048,2.99,1.048
			c1.807,0,3.136-0.46,3.988-1.379s1.278-2.414,1.278-4.487v-8.439h1.369v15.29h-1.174l-0.251-2.11h-0.083
			c-0.987,1.595-2.743,2.392-5.267,2.392c-3.456,0-5.183-1.861-5.183-5.584v-9.987H72.117z"/>
		<path fill="#3C3C3B" d="M98.381,183.503v-9.917c0-1.538-0.321-2.656-0.964-3.354s-1.639-1.048-2.99-1.048
			c-1.816,0-3.146,0.462-3.988,1.386c-0.843,0.924-1.264,2.422-1.264,4.494v8.439h-1.383v-15.29h1.174l0.265,2.096h0.084
			c0.987-1.594,2.743-2.392,5.267-2.392c3.446,0,5.169,1.862,5.169,5.585v10.001H98.381z"/>
		<path fill="#3C3C3B" d="M110.228,167.917c1.099,0,2.049,0.202,2.85,0.605c0.801,0.403,1.518,1.093,2.151,2.067h0.084
			c-0.056-1.182-0.084-2.34-0.084-3.475v-5.5h1.369v21.888h-0.908l-0.349-2.335h-0.112c-1.155,1.744-2.813,2.616-4.973,2.616
			c-2.096,0-3.698-0.656-4.806-1.969c-1.108-1.313-1.662-3.227-1.662-5.739c0-2.645,0.549-4.665,1.648-6.063
			C106.535,168.616,108.132,167.917,110.228,167.917z M110.228,169.184c-1.658,0-2.903,0.586-3.737,1.758
			c-0.833,1.173-1.25,2.875-1.25,5.106c0,4.332,1.672,6.499,5.016,6.499c1.713,0,2.971-0.502,3.772-1.506
			c0.801-1.003,1.201-2.658,1.201-4.965v-0.239c0-2.363-0.394-4.063-1.181-5.1C113.261,169.701,111.988,169.184,110.228,169.184z"/>
		<path fill="#3C3C3B" d="M132.287,183.503v-9.917c0-1.538-0.321-2.656-0.964-3.354s-1.639-1.048-2.99-1.048
			c-1.816,0-3.146,0.462-3.988,1.386c-0.843,0.924-1.264,2.422-1.264,4.494v8.439h-1.383v-21.888h1.383v6.963l-0.07,1.956h0.098
			c0.568-0.919,1.285-1.585,2.151-1.998c0.866-0.412,1.942-0.619,3.227-0.619c3.446,0,5.169,1.862,5.169,5.585v10.001H132.287z"/>
		<path fill="#3C3C3B" d="M144.706,183.784c-2.207,0-3.928-0.685-5.162-2.054c-1.234-1.369-1.851-3.286-1.851-5.753
			c0-2.438,0.596-4.391,1.788-5.858c1.192-1.468,2.798-2.202,4.82-2.202c1.788,0,3.199,0.629,4.233,1.886
			c1.034,1.256,1.551,2.963,1.551,5.12v1.125h-10.939c0.019,2.101,0.505,3.704,1.46,4.811s2.321,1.66,4.1,1.66
			c0.866,0,1.628-0.062,2.284-0.184c0.657-0.121,1.488-0.384,2.494-0.787v1.266c-0.857,0.375-1.648,0.631-2.375,0.767
			C146.383,183.716,145.582,183.784,144.706,183.784z M144.301,169.155c-1.462,0-2.636,0.485-3.521,1.456
			c-0.885,0.971-1.402,2.37-1.551,4.198h9.388c0-1.772-0.382-3.157-1.146-4.156S145.651,169.155,144.301,169.155z"/>
		<path fill="#3C3C3B" d="M154.081,163.965c0-0.9,0.293-1.351,0.88-1.351c0.289,0,0.515,0.117,0.678,0.352
			c0.163,0.234,0.244,0.567,0.244,0.999c0,0.422-0.082,0.755-0.244,0.999c-0.163,0.243-0.389,0.365-0.678,0.365
			C154.374,165.329,154.081,164.874,154.081,163.965z M155.659,183.503h-1.383v-15.29h1.383V183.503z"/>
		<path fill="#3C3C3B" d="M164.754,182.547c0.875,0,1.639-0.075,2.291-0.226v1.125c-0.671,0.226-1.444,0.338-2.319,0.338
			c-1.341,0-2.331-0.36-2.969-1.083c-0.638-0.722-0.957-1.856-0.957-3.404v-9.874h-2.25v-0.816l2.25-0.633l0.698-3.46h0.712v3.699
			h4.457v1.21h-4.457v9.678c0,1.172,0.205,2.039,0.615,2.602S163.878,182.547,164.754,182.547z"/>
		<path fill="#3C3C3B" d="M179.744,179.522c0,1.369-0.517,2.422-1.551,3.157c-1.034,0.736-2.5,1.104-4.4,1.104
			c-2.031,0-3.642-0.314-4.834-0.942v-1.505c1.527,0.769,3.139,1.153,4.834,1.153c1.499,0,2.638-0.251,3.416-0.753
			c0.777-0.501,1.167-1.169,1.167-2.004c0-0.77-0.31-1.416-0.929-1.941c-0.619-0.525-1.637-1.041-3.052-1.547
			c-1.518-0.554-2.584-1.029-3.199-1.428s-1.078-0.849-1.39-1.351s-0.468-1.113-0.468-1.836c0-1.144,0.477-2.049,1.432-2.715
			s2.289-0.999,4.002-0.999c1.639,0,3.195,0.31,4.667,0.929l-0.517,1.266c-1.49-0.618-2.874-0.928-4.149-0.928
			c-1.239,0-2.221,0.206-2.947,0.619c-0.727,0.412-1.09,0.984-1.09,1.716c0,0.797,0.282,1.435,0.845,1.913s1.665,1.013,3.304,1.604
			c1.369,0.497,2.366,0.944,2.99,1.343c0.624,0.399,1.092,0.852,1.404,1.357C179.587,178.242,179.744,178.838,179.744,179.522z"/>
		<path fill="#3C3C3B" d="M187.665,182.547c0.875,0,1.639-0.075,2.291-0.226v1.125c-0.671,0.226-1.444,0.338-2.319,0.338
			c-1.341,0-2.331-0.36-2.969-1.083c-0.638-0.722-0.957-1.856-0.957-3.404v-9.874h-2.25v-0.816l2.25-0.633l0.698-3.46h0.712v3.699
			h4.457v1.21h-4.457v9.678c0,1.172,0.205,2.039,0.615,2.602S186.789,182.547,187.665,182.547z"/>
		<path fill="#3C3C3B" d="M199.218,167.917c0.643,0,1.332,0.066,2.067,0.197l-0.266,1.336c-0.633-0.159-1.29-0.238-1.97-0.238
			c-1.294,0-2.356,0.553-3.185,1.659c-0.829,1.106-1.243,2.504-1.243,4.192v8.439h-1.383v-15.29h1.174l0.14,2.757h0.098
			c0.624-1.125,1.29-1.915,1.998-2.37S198.212,167.917,199.218,167.917z"/>
		<path fill="#3C3C3B" d="M213.593,183.503l-0.349-2.419h-0.112c-0.764,0.984-1.548,1.681-2.354,2.089
			c-0.806,0.407-1.758,0.611-2.857,0.611c-1.49,0-2.649-0.385-3.479-1.153s-1.243-1.833-1.243-3.193
			c0-1.491,0.617-2.648,1.851-3.475c1.234-0.824,3.02-1.261,5.357-1.308l2.892-0.084v-1.014c0-1.453-0.293-2.55-0.88-3.291
			s-1.532-1.111-2.836-1.111c-1.406,0-2.864,0.394-4.373,1.182l-0.517-1.21c1.667-0.787,3.315-1.182,4.946-1.182
			c1.667,0,2.913,0.437,3.737,1.309s1.236,2.231,1.236,4.079v10.17H213.593z M208.005,182.519c1.621,0,2.899-0.467,3.835-1.399
			c0.936-0.934,1.404-2.229,1.404-3.89v-1.505l-2.654,0.112c-2.133,0.104-3.653,0.438-4.561,1.006
			c-0.908,0.567-1.362,1.451-1.362,2.651c0,0.956,0.291,1.7,0.873,2.229C206.121,182.254,206.943,182.519,208.005,182.519z"/>
		<path fill="#3C3C3B" d="M219.335,163.965c0-0.9,0.293-1.351,0.88-1.351c0.289,0,0.515,0.117,0.678,0.352
			c0.163,0.234,0.244,0.567,0.244,0.999c0,0.422-0.082,0.755-0.244,0.999c-0.163,0.243-0.389,0.365-0.678,0.365
			C219.628,165.329,219.335,164.874,219.335,163.965z M220.914,183.503h-1.383v-15.29h1.383V183.503z"/>
		<path fill="#3C3C3B" d="M236.588,183.503v-9.917c0-1.538-0.321-2.656-0.964-3.354s-1.639-1.048-2.99-1.048
			c-1.816,0-3.146,0.462-3.988,1.386c-0.843,0.924-1.264,2.422-1.264,4.494v8.439h-1.383v-15.29h1.174l0.265,2.096h0.084
			c0.987-1.594,2.743-2.392,5.267-2.392c3.446,0,5.169,1.862,5.169,5.585v10.001H236.588z"/>
		<path fill="#3C3C3B" d="M242.679,163.965c0-0.9,0.293-1.351,0.88-1.351c0.289,0,0.515,0.117,0.678,0.352
			c0.163,0.234,0.244,0.567,0.244,0.999c0,0.422-0.082,0.755-0.244,0.999c-0.163,0.243-0.389,0.365-0.678,0.365
			C242.972,165.329,242.679,164.874,242.679,163.965z M244.258,183.503h-1.383v-15.29h1.383V183.503z"/>
		<path fill="#3C3C3B" d="M259.932,183.503v-9.917c0-1.538-0.321-2.656-0.964-3.354s-1.639-1.048-2.99-1.048
			c-1.816,0-3.146,0.462-3.988,1.386c-0.843,0.924-1.264,2.422-1.264,4.494v8.439h-1.383v-15.29h1.174l0.265,2.096h0.084
			c0.987-1.594,2.743-2.392,5.267-2.392c3.446,0,5.169,1.862,5.169,5.585v10.001H259.932z"/>
		<path fill="#3C3C3B" d="M278.065,168.213v0.971l-3.143,0.196c0.838,1.051,1.257,2.204,1.257,3.461c0,1.473-0.487,2.665-1.46,3.58
			c-0.973,0.914-2.28,1.371-3.918,1.371c-0.689,0-1.174-0.028-1.453-0.084c-0.55,0.29-0.969,0.633-1.257,1.026
			s-0.433,0.812-0.433,1.252c0,0.487,0.184,0.844,0.552,1.069c0.368,0.225,0.985,0.337,1.851,0.337h2.654
			c1.648,0,2.911,0.336,3.786,1.006c0.875,0.671,1.313,1.662,1.313,2.976c0,1.612-0.649,2.857-1.949,3.734s-3.15,1.315-5.553,1.315
			c-1.909,0-3.388-0.371-4.436-1.111c-1.048-0.741-1.572-1.772-1.572-3.095c0-1.051,0.324-1.923,0.971-2.616
			c0.647-0.694,1.525-1.168,2.633-1.421c-0.457-0.197-0.822-0.476-1.097-0.837s-0.412-0.775-0.412-1.245
			c0-1.021,0.647-1.922,1.942-2.7c-0.885-0.366-1.574-0.94-2.067-1.724c-0.494-0.782-0.741-1.681-0.741-2.693
			c0-1.528,0.482-2.755,1.446-3.679c0.964-0.923,2.266-1.386,3.905-1.386c0.997,0,1.77,0.099,2.319,0.296H278.065z M265.772,186.091
			c0,2.101,1.55,3.151,4.652,3.151c3.986,0,5.979-1.28,5.979-3.84c0-0.92-0.313-1.585-0.936-1.998
			c-0.624-0.412-1.635-0.619-3.032-0.619h-2.487C267.164,182.785,265.772,183.888,265.772,186.091z M266.931,172.981
			c0,1.182,0.356,2.099,1.069,2.75s1.665,0.978,2.857,0.978c1.267,0,2.237-0.323,2.913-0.971s1.013-1.585,1.013-2.813
			c0-1.303-0.347-2.28-1.041-2.933c-0.694-0.651-1.665-0.978-2.913-0.978c-1.211,0-2.163,0.35-2.857,1.048
			C267.278,170.762,266.931,171.734,266.931,172.981z"/>
		<path fill="#3C3C3B" d="M300.236,178.2c0,1.716-0.626,3.075-1.879,4.079c-1.252,1.003-2.917,1.505-4.994,1.505
			c-2.496,0-4.41-0.276-5.742-0.83v-1.435c1.471,0.628,3.348,0.942,5.63,0.942c1.676,0,3.006-0.387,3.988-1.16
			c0.983-0.773,1.474-1.789,1.474-3.046c0-0.778-0.163-1.423-0.489-1.934c-0.326-0.511-0.857-0.978-1.593-1.399
			c-0.736-0.423-1.816-0.877-3.241-1.365c-2.086-0.722-3.527-1.502-4.324-2.342c-0.796-0.839-1.194-1.957-1.194-3.354
			c0-1.538,0.598-2.792,1.795-3.763s2.736-1.456,4.617-1.456c1.918,0,3.721,0.365,5.407,1.097l-0.517,1.238
			c-1.695-0.713-3.316-1.069-4.862-1.069c-1.509,0-2.71,0.352-3.604,1.056c-0.894,0.703-1.341,1.659-1.341,2.869
			c0,0.76,0.137,1.384,0.412,1.871s0.724,0.926,1.348,1.315c0.624,0.389,1.695,0.855,3.213,1.399c1.592,0.553,2.789,1.09,3.59,1.61
			c0.801,0.521,1.385,1.111,1.753,1.772C300.052,176.463,300.236,177.263,300.236,178.2z"/>
		<path fill="#3C3C3B" d="M308.213,182.547c0.875,0,1.639-0.075,2.291-0.226v1.125c-0.671,0.226-1.444,0.338-2.319,0.338
			c-1.341,0-2.331-0.36-2.969-1.083c-0.638-0.722-0.957-1.856-0.957-3.404v-9.874h-2.25v-0.816l2.25-0.633l0.698-3.46h0.712v3.699
			h4.457v1.21h-4.457v9.678c0,1.172,0.205,2.039,0.615,2.602S307.337,182.547,308.213,182.547z"/>
		<path fill="#3C3C3B" d="M319.767,167.917c0.643,0,1.332,0.066,2.067,0.197l-0.266,1.336c-0.633-0.159-1.29-0.238-1.97-0.238
			c-1.294,0-2.356,0.553-3.185,1.659c-0.829,1.106-1.243,2.504-1.243,4.192v8.439h-1.383v-15.29h1.174l0.14,2.757h0.098
			c0.624-1.125,1.29-1.915,1.998-2.37S318.761,167.917,319.767,167.917z"/>
		<path fill="#3C3C3B" d="M331.054,183.784c-2.207,0-3.928-0.685-5.162-2.054c-1.234-1.369-1.851-3.286-1.851-5.753
			c0-2.438,0.596-4.391,1.788-5.858c1.192-1.468,2.798-2.202,4.82-2.202c1.788,0,3.199,0.629,4.233,1.886
			c1.034,1.256,1.551,2.963,1.551,5.12v1.125h-10.939c0.019,2.101,0.505,3.704,1.46,4.811s2.321,1.66,4.1,1.66
			c0.866,0,1.628-0.062,2.284-0.184c0.657-0.121,1.488-0.384,2.494-0.787v1.266c-0.857,0.375-1.648,0.631-2.375,0.767
			C332.731,183.716,331.93,183.784,331.054,183.784z M330.649,169.155c-1.462,0-2.636,0.485-3.521,1.456
			c-0.885,0.971-1.402,2.37-1.551,4.198h9.388c0-1.772-0.382-3.157-1.146-4.156S332,169.155,330.649,169.155z"/>
		<path fill="#3C3C3B" d="M350.04,179.522c0,1.369-0.517,2.422-1.551,3.157c-1.034,0.736-2.5,1.104-4.4,1.104
			c-2.031,0-3.642-0.314-4.834-0.942v-1.505c1.527,0.769,3.139,1.153,4.834,1.153c1.499,0,2.638-0.251,3.416-0.753
			c0.777-0.501,1.167-1.169,1.167-2.004c0-0.77-0.31-1.416-0.929-1.941c-0.619-0.525-1.637-1.041-3.052-1.547
			c-1.518-0.554-2.584-1.029-3.199-1.428s-1.078-0.849-1.39-1.351s-0.468-1.113-0.468-1.836c0-1.144,0.477-2.049,1.432-2.715
			s2.289-0.999,4.002-0.999c1.639,0,3.195,0.31,4.667,0.929l-0.517,1.266c-1.49-0.618-2.874-0.928-4.149-0.928
			c-1.239,0-2.221,0.206-2.947,0.619c-0.727,0.412-1.09,0.984-1.09,1.716c0,0.797,0.282,1.435,0.845,1.913s1.665,1.013,3.304,1.604
			c1.369,0.497,2.366,0.944,2.99,1.343c0.624,0.399,1.092,0.852,1.404,1.357C349.884,178.242,350.04,178.838,350.04,179.522z"/>
		<path fill="#3C3C3B" d="M363.368,179.522c0,1.369-0.517,2.422-1.551,3.157c-1.034,0.736-2.5,1.104-4.4,1.104
			c-2.031,0-3.642-0.314-4.834-0.942v-1.505c1.527,0.769,3.139,1.153,4.834,1.153c1.499,0,2.638-0.251,3.416-0.753
			c0.777-0.501,1.167-1.169,1.167-2.004c0-0.77-0.31-1.416-0.929-1.941c-0.619-0.525-1.637-1.041-3.052-1.547
			c-1.518-0.554-2.584-1.029-3.199-1.428s-1.078-0.849-1.39-1.351s-0.468-1.113-0.468-1.836c0-1.144,0.477-2.049,1.432-2.715
			s2.289-0.999,4.002-0.999c1.639,0,3.195,0.31,4.667,0.929l-0.517,1.266c-1.49-0.618-2.874-0.928-4.149-0.928
			c-1.239,0-2.221,0.206-2.947,0.619c-0.727,0.412-1.09,0.984-1.09,1.716c0,0.797,0.282,1.435,0.845,1.913s1.665,1.013,3.304,1.604
			c1.369,0.497,2.366,0.944,2.99,1.343c0.624,0.399,1.092,0.852,1.404,1.357C363.211,178.242,363.368,178.838,363.368,179.522z"/>
		<path fill="#3C3C3B" d="M373.691,167.917c2.123,0,3.723,0.674,4.799,2.019c1.075,1.346,1.613,3.313,1.613,5.901
			c0,2.541-0.565,4.501-1.697,5.88c-1.132,1.378-2.722,2.067-4.771,2.067c-1.081,0-2.054-0.225-2.92-0.675
			c-0.866-0.45-1.55-1.088-2.053-1.913h-0.126l-0.391,2.307h-0.866v-21.888h1.383v5.5c0,0.826-0.019,1.585-0.056,2.279l-0.042,1.195
			h0.098c0.577-0.919,1.273-1.594,2.088-2.025S372.546,167.917,373.691,167.917z M373.663,169.184c-1.788,0-3.069,0.516-3.842,1.547
			c-0.773,1.032-1.159,2.734-1.159,5.106v0.239c0,2.307,0.402,3.962,1.208,4.965c0.805,1.004,2.061,1.506,3.765,1.506
			c1.658,0,2.906-0.584,3.744-1.752c0.839-1.167,1.258-2.829,1.258-4.986C378.637,171.392,376.979,169.184,373.663,169.184z"/>
		<path fill="#3C3C3B" d="M390.442,183.784c-2.208,0-3.929-0.685-5.162-2.054c-1.234-1.369-1.852-3.286-1.852-5.753
			c0-2.438,0.597-4.391,1.788-5.858c1.192-1.468,2.799-2.202,4.82-2.202c1.788,0,3.199,0.629,4.232,1.886
			c1.034,1.256,1.551,2.963,1.551,5.12v1.125h-10.938c0.019,2.101,0.505,3.704,1.46,4.811s2.321,1.66,4.101,1.66
			c0.866,0,1.627-0.062,2.284-0.184c0.656-0.121,1.487-0.384,2.493-0.787v1.266c-0.856,0.375-1.648,0.631-2.375,0.767
			S391.317,183.784,390.442,183.784z M390.037,169.155c-1.463,0-2.636,0.485-3.521,1.456s-1.402,2.37-1.551,4.198h9.388
			c0-1.772-0.382-3.157-1.146-4.156S391.388,169.155,390.037,169.155z"/>
		<path fill="#3C3C3B" d="M412.151,183.503l-3.325-10.227c-0.214-0.693-0.488-1.711-0.824-3.052h-0.084l-0.293,1.041l-0.629,2.039
			l-3.381,10.198h-1.369l-4.345-15.29h1.481l2.431,8.861c0.568,2.194,0.94,3.808,1.117,4.839h0.084
			c0.55-2.194,0.95-3.652,1.202-4.374l3.129-9.326h1.257l2.977,9.298c0.67,2.204,1.08,3.662,1.229,4.375h0.084
			c0.074-0.61,0.447-2.241,1.118-4.896l2.318-8.777h1.397l-4.121,15.29H412.151z"/>
		<path fill="#3C3C3B" d="M429.921,183.503l-0.349-2.419h-0.112c-0.764,0.984-1.549,1.681-2.354,2.089
			c-0.806,0.407-1.759,0.611-2.857,0.611c-1.49,0-2.649-0.385-3.479-1.153s-1.243-1.833-1.243-3.193
			c0-1.491,0.617-2.648,1.851-3.475c1.234-0.824,3.021-1.261,5.358-1.308l2.892-0.084v-1.014c0-1.453-0.294-2.55-0.88-3.291
			c-0.587-0.741-1.532-1.111-2.836-1.111c-1.407,0-2.864,0.394-4.373,1.182l-0.517-1.21c1.667-0.787,3.315-1.182,4.945-1.182
			c1.667,0,2.912,0.437,3.736,1.309s1.236,2.231,1.236,4.079v10.17H429.921z M424.333,182.519c1.62,0,2.898-0.467,3.835-1.399
			c0.936-0.934,1.404-2.229,1.404-3.89v-1.505l-2.654,0.112c-2.134,0.104-3.653,0.438-4.562,1.006s-1.362,1.451-1.362,2.651
			c0,0.956,0.291,1.7,0.873,2.229C422.449,182.254,423.271,182.519,424.333,182.519z M422.098,163.965
			c0-0.432,0.072-0.741,0.217-0.929s0.365-0.281,0.663-0.281c0.597,0,0.895,0.403,0.895,1.21s-0.298,1.21-0.895,1.21
			C422.392,165.175,422.098,164.771,422.098,163.965z M427.421,163.965c0-0.432,0.071-0.741,0.216-0.929s0.365-0.281,0.664-0.281
			c0.596,0,0.894,0.403,0.894,1.21s-0.298,1.21-0.894,1.21C427.714,165.175,427.421,164.771,427.421,163.965z"/>
		<path fill="#3C3C3B" d="M437.242,183.503h-1.383v-21.888h1.383V183.503z"/>
		<path fill="#3C3C3B" d="M446.336,182.547c0.876,0,1.64-0.075,2.291-0.226v1.125c-0.67,0.226-1.443,0.338-2.318,0.338
			c-1.342,0-2.331-0.36-2.969-1.083c-0.639-0.722-0.957-1.856-0.957-3.404v-9.874h-2.249v-0.816l2.249-0.633l0.698-3.46h0.713v3.699
			h4.456v1.21h-4.456v9.678c0,1.172,0.204,2.039,0.614,2.602S445.461,182.547,446.336,182.547z"/>
		<path fill="#3C3C3B" d="M451.715,163.965c0-0.9,0.294-1.351,0.881-1.351c0.288,0,0.514,0.117,0.677,0.352s0.245,0.567,0.245,0.999
			c0,0.422-0.082,0.755-0.245,0.999c-0.163,0.243-0.389,0.365-0.677,0.365C452.009,165.329,451.715,164.874,451.715,163.965z
			 M453.294,183.503h-1.383v-15.29h1.383V183.503z"/>
		<path fill="#3C3C3B" d="M470.226,168.213v0.971l-3.144,0.196c0.838,1.051,1.257,2.204,1.257,3.461c0,1.473-0.486,2.665-1.46,3.58
			c-0.973,0.914-2.279,1.371-3.918,1.371c-0.689,0-1.174-0.028-1.453-0.084c-0.55,0.29-0.969,0.633-1.257,1.026
			c-0.289,0.394-0.434,0.812-0.434,1.252c0,0.487,0.184,0.844,0.552,1.069c0.368,0.225,0.985,0.337,1.852,0.337h2.654
			c1.648,0,2.91,0.336,3.785,1.006c0.876,0.671,1.313,1.662,1.313,2.976c0,1.612-0.649,2.857-1.948,3.734
			c-1.3,0.877-3.15,1.315-5.554,1.315c-1.909,0-3.388-0.371-4.436-1.111c-1.048-0.741-1.571-1.772-1.571-3.095
			c0-1.051,0.323-1.923,0.971-2.616c0.647-0.694,1.525-1.168,2.634-1.421c-0.457-0.197-0.822-0.476-1.097-0.837
			c-0.275-0.361-0.412-0.775-0.412-1.245c0-1.021,0.646-1.922,1.941-2.7c-0.885-0.366-1.574-0.94-2.067-1.724
			c-0.494-0.782-0.74-1.681-0.74-2.693c0-1.528,0.481-2.755,1.445-3.679c0.964-0.923,2.266-1.386,3.905-1.386
			c0.996,0,1.769,0.099,2.318,0.296H470.226z M457.932,186.091c0,2.101,1.551,3.151,4.652,3.151c3.985,0,5.979-1.28,5.979-3.84
			c0-0.92-0.312-1.585-0.936-1.998c-0.624-0.412-1.635-0.619-3.031-0.619h-2.487C459.323,182.785,457.932,183.888,457.932,186.091z
			 M459.091,172.981c0,1.182,0.356,2.099,1.069,2.75c0.712,0.651,1.664,0.978,2.856,0.978c1.267,0,2.237-0.323,2.913-0.971
			c0.675-0.647,1.013-1.585,1.013-2.813c0-1.303-0.348-2.28-1.041-2.933c-0.693-0.651-1.665-0.978-2.913-0.978
			c-1.21,0-2.163,0.35-2.856,1.048C459.438,170.762,459.091,171.734,459.091,172.981z"/>
		<path fill="#3C3C3B" d="M474.542,168.213v9.902c0,1.538,0.321,2.656,0.964,3.355c0.643,0.698,1.639,1.048,2.989,1.048
			c1.807,0,3.137-0.46,3.989-1.379c0.852-0.919,1.277-2.414,1.277-4.487v-8.439h1.369v15.29h-1.173l-0.252-2.11h-0.084
			c-0.987,1.595-2.742,2.392-5.267,2.392c-3.455,0-5.183-1.861-5.183-5.584v-9.987H474.542z"/>
		<path fill="#3C3C3B" d="M500.806,183.503v-9.917c0-1.538-0.321-2.656-0.964-3.354s-1.64-1.048-2.989-1.048
			c-1.816,0-3.146,0.462-3.989,1.386c-0.843,0.924-1.264,2.422-1.264,4.494v8.439h-1.383v-15.29h1.173l0.266,2.096h0.084
			c0.987-1.594,2.742-2.392,5.267-2.392c3.446,0,5.169,1.862,5.169,5.585v10.001H500.806z"/>
		<path fill="#3C3C3B" d="M518.939,168.213v0.971l-3.144,0.196c0.838,1.051,1.257,2.204,1.257,3.461c0,1.473-0.486,2.665-1.46,3.58
			c-0.973,0.914-2.279,1.371-3.918,1.371c-0.689,0-1.174-0.028-1.453-0.084c-0.55,0.29-0.969,0.633-1.257,1.026
			c-0.289,0.394-0.434,0.812-0.434,1.252c0,0.487,0.184,0.844,0.552,1.069c0.368,0.225,0.985,0.337,1.852,0.337h2.654
			c1.648,0,2.91,0.336,3.785,1.006c0.876,0.671,1.313,1.662,1.313,2.976c0,1.612-0.649,2.857-1.948,3.734
			c-1.3,0.877-3.15,1.315-5.554,1.315c-1.909,0-3.388-0.371-4.436-1.111c-1.048-0.741-1.571-1.772-1.571-3.095
			c0-1.051,0.323-1.923,0.971-2.616c0.647-0.694,1.525-1.168,2.634-1.421c-0.457-0.197-0.822-0.476-1.097-0.837
			c-0.275-0.361-0.412-0.775-0.412-1.245c0-1.021,0.646-1.922,1.941-2.7c-0.885-0.366-1.574-0.94-2.067-1.724
			c-0.494-0.782-0.74-1.681-0.74-2.693c0-1.528,0.481-2.755,1.445-3.679c0.964-0.923,2.266-1.386,3.905-1.386
			c0.996,0,1.769,0.099,2.318,0.296H518.939z M506.646,186.091c0,2.101,1.551,3.151,4.652,3.151c3.985,0,5.979-1.28,5.979-3.84
			c0-0.92-0.312-1.585-0.936-1.998c-0.624-0.412-1.635-0.619-3.031-0.619h-2.487C508.037,182.785,506.646,183.888,506.646,186.091z
			 M507.805,172.981c0,1.182,0.356,2.099,1.069,2.75c0.712,0.651,1.664,0.978,2.856,0.978c1.267,0,2.237-0.323,2.913-0.971
			c0.675-0.647,1.013-1.585,1.013-2.813c0-1.303-0.348-2.28-1.041-2.933c-0.693-0.651-1.665-0.978-2.913-0.978
			c-1.21,0-2.163,0.35-2.856,1.048C508.151,170.762,507.805,171.734,507.805,172.981z"/>
		<path fill="#3C3C3B" d="M538.707,183.503l-0.349-2.419h-0.112c-0.764,0.984-1.549,1.681-2.354,2.089
			c-0.806,0.407-1.759,0.611-2.857,0.611c-1.49,0-2.649-0.385-3.479-1.153s-1.243-1.833-1.243-3.193
			c0-1.491,0.617-2.648,1.851-3.475c1.234-0.824,3.021-1.261,5.358-1.308l2.892-0.084v-1.014c0-1.453-0.294-2.55-0.88-3.291
			c-0.587-0.741-1.532-1.111-2.836-1.111c-1.407,0-2.864,0.394-4.373,1.182l-0.517-1.21c1.667-0.787,3.315-1.182,4.945-1.182
			c1.667,0,2.912,0.437,3.736,1.309s1.236,2.231,1.236,4.079v10.17H538.707z M533.119,182.519c1.62,0,2.898-0.467,3.835-1.399
			c0.936-0.934,1.404-2.229,1.404-3.89v-1.505l-2.654,0.112c-2.134,0.104-3.653,0.438-4.562,1.006s-1.362,1.451-1.362,2.651
			c0,0.956,0.291,1.7,0.873,2.229C531.235,182.254,532.058,182.519,533.119,182.519z"/>
		<path fill="#3C3C3B" d="M563.615,183.503v-10.029c0-1.491-0.288-2.579-0.866-3.264c-0.577-0.685-1.462-1.026-2.654-1.026
			c-1.555,0-2.705,0.432-3.45,1.294c-0.745,0.863-1.117,2.218-1.117,4.065v8.96h-1.411v-10.451c0-2.579-1.174-3.868-3.521-3.868
			c-1.593,0-2.752,0.467-3.479,1.399c-0.727,0.934-1.09,2.427-1.09,4.48v8.439h-1.383v-15.29h1.146l0.293,2.096h0.084
			c0.419-0.76,1.015-1.348,1.788-1.766c0.772-0.417,1.625-0.626,2.557-0.626c2.394,0,3.93,0.905,4.61,2.715h0.056
			c0.493-0.872,1.157-1.542,1.99-2.011c0.834-0.469,1.781-0.704,2.844-0.704c1.657,0,2.9,0.446,3.729,1.337s1.243,2.307,1.243,4.248
			v10.001H563.615z"/>
		<path fill="#3C3C3B" d="M587.519,176.245h-8.298l-2.85,7.258h-1.579l8.215-20.649h0.907l8.047,20.649h-1.606L587.519,176.245z
			 M579.737,174.95h7.307l-2.78-7.412c-0.232-0.582-0.513-1.388-0.838-2.42c-0.252,0.9-0.526,1.716-0.824,2.447L579.737,174.95z"/>
		<path fill="#3C3C3B" d="M600.483,167.917c0.643,0,1.332,0.066,2.068,0.197l-0.266,1.336c-0.634-0.159-1.29-0.238-1.97-0.238
			c-1.295,0-2.356,0.553-3.186,1.659s-1.243,2.504-1.243,4.192v8.439h-1.383v-15.29h1.173l0.14,2.757h0.098
			c0.624-1.125,1.29-1.915,1.998-2.37S599.478,167.917,600.483,167.917z"/>
		<path fill="#3C3C3B" d="M612.051,167.917c2.123,0,3.723,0.674,4.799,2.019c1.075,1.346,1.613,3.313,1.613,5.901
			c0,2.541-0.565,4.501-1.697,5.88c-1.132,1.378-2.722,2.067-4.771,2.067c-1.081,0-2.054-0.225-2.92-0.675s-1.551-1.088-2.054-1.913
			h-0.126l-0.391,2.307h-0.866v-21.888h1.383v5.5c0,0.826-0.019,1.585-0.056,2.279l-0.042,1.195h0.098
			c0.577-0.919,1.273-1.594,2.089-2.025C609.925,168.133,610.905,167.917,612.051,167.917z M612.022,169.184
			c-1.788,0-3.068,0.516-3.842,1.547c-0.773,1.032-1.159,2.734-1.159,5.106v0.239c0,2.307,0.402,3.962,1.208,4.965
			c0.806,1.004,2.061,1.506,3.766,1.506c1.657,0,2.905-0.584,3.743-1.752c0.839-1.167,1.258-2.829,1.258-4.986
			C616.996,171.392,615.338,169.184,612.022,169.184z"/>
		<path fill="#3C3C3B" d="M628.801,183.784c-2.208,0-3.929-0.685-5.162-2.054c-1.234-1.369-1.852-3.286-1.852-5.753
			c0-2.438,0.597-4.391,1.788-5.858c1.192-1.468,2.799-2.202,4.82-2.202c1.788,0,3.199,0.629,4.232,1.886
			c1.034,1.256,1.551,2.963,1.551,5.12v1.125H623.24c0.019,2.101,0.505,3.704,1.46,4.811s2.321,1.66,4.101,1.66
			c0.866,0,1.627-0.062,2.284-0.184c0.656-0.121,1.487-0.384,2.493-0.787v1.266c-0.856,0.375-1.648,0.631-2.375,0.767
			S629.676,183.784,628.801,183.784z M628.396,169.155c-1.463,0-2.636,0.485-3.521,1.456s-1.402,2.37-1.551,4.198h9.388
			c0-1.772-0.382-3.157-1.146-4.156S629.746,169.155,628.396,169.155z"/>
		<path fill="#3C3C3B" d="M638.175,163.965c0-0.9,0.294-1.351,0.881-1.351c0.288,0,0.514,0.117,0.677,0.352s0.245,0.567,0.245,0.999
			c0,0.422-0.082,0.755-0.245,0.999c-0.163,0.243-0.389,0.365-0.677,0.365C638.469,165.329,638.175,164.874,638.175,163.965z
			 M639.754,183.503h-1.383v-15.29h1.383V183.503z"/>
		<path fill="#3C3C3B" d="M648.848,182.547c0.876,0,1.64-0.075,2.291-0.226v1.125c-0.67,0.226-1.443,0.338-2.318,0.338
			c-1.342,0-2.331-0.36-2.969-1.083c-0.639-0.722-0.957-1.856-0.957-3.404v-9.874h-2.249v-0.816l2.249-0.633l0.698-3.46h0.713v3.699
			h4.456v1.21h-4.456v9.678c0,1.172,0.204,2.039,0.614,2.602S647.973,182.547,648.848,182.547z"/>
		<path fill="#3C3C3B" d="M663.838,179.522c0,1.369-0.517,2.422-1.55,3.157c-1.034,0.736-2.501,1.104-4.401,1.104
			c-2.03,0-3.642-0.314-4.833-0.942v-1.505c1.527,0.769,3.138,1.153,4.833,1.153c1.5,0,2.639-0.251,3.416-0.753
			c0.777-0.501,1.167-1.169,1.167-2.004c0-0.77-0.311-1.416-0.93-1.941s-1.637-1.041-3.053-1.547
			c-1.518-0.554-2.584-1.029-3.198-1.428c-0.615-0.398-1.078-0.849-1.391-1.351c-0.312-0.502-0.468-1.113-0.468-1.836
			c0-1.144,0.478-2.049,1.432-2.715c0.955-0.666,2.289-0.999,4.003-0.999c1.639,0,3.194,0.31,4.666,0.929l-0.518,1.266
			c-1.49-0.618-2.873-0.928-4.148-0.928c-1.239,0-2.222,0.206-2.948,0.619c-0.727,0.412-1.09,0.984-1.09,1.716
			c0,0.797,0.282,1.435,0.846,1.913s1.665,1.013,3.304,1.604c1.369,0.497,2.365,0.944,2.99,1.343
			c0.623,0.399,1.092,0.852,1.403,1.357C663.683,178.242,663.838,178.838,663.838,179.522z"/>
		<path fill="#3C3C3B" d="M674.246,183.784c-2.338,0-4.043-0.881-5.113-2.645h-0.098l0.042,1.182
			c0.037,0.694,0.056,1.453,0.056,2.279v5.823h-1.383v-22.211h1.173l0.266,2.181h0.084c1.043-1.65,2.71-2.477,5.001-2.477
			c2.049,0,3.611,0.678,4.688,2.033c1.075,1.355,1.613,3.326,1.613,5.915c0,2.513-0.565,4.461-1.697,5.844
			C677.745,183.093,676.201,183.784,674.246,183.784z M674.218,182.547c1.556,0,2.759-0.582,3.611-1.745
			c0.853-1.162,1.278-2.789,1.278-4.881c0-4.491-1.611-6.737-4.834-6.737c-1.77,0-3.068,0.49-3.897,1.47
			c-0.829,0.98-1.243,2.576-1.243,4.79v0.449c0,2.392,0.398,4.099,1.194,5.121C671.123,182.035,672.42,182.547,674.218,182.547z"/>
		<path fill="#3C3C3B" d="M686.162,183.503h-1.383v-21.888h1.383V183.503z"/>
		<path fill="#3C3C3B" d="M700.468,183.503l-0.349-2.419h-0.112c-0.764,0.984-1.549,1.681-2.354,2.089
			c-0.806,0.407-1.759,0.611-2.857,0.611c-1.49,0-2.649-0.385-3.479-1.153s-1.243-1.833-1.243-3.193
			c0-1.491,0.617-2.648,1.851-3.475c1.234-0.824,3.021-1.261,5.358-1.308l2.892-0.084v-1.014c0-1.453-0.294-2.55-0.88-3.291
			c-0.587-0.741-1.532-1.111-2.836-1.111c-1.407,0-2.864,0.394-4.373,1.182l-0.517-1.21c1.667-0.787,3.315-1.182,4.945-1.182
			c1.667,0,2.912,0.437,3.736,1.309s1.236,2.231,1.236,4.079v10.17H700.468z M694.88,182.519c1.62,0,2.898-0.467,3.835-1.399
			c0.936-0.934,1.404-2.229,1.404-3.89v-1.505l-2.654,0.112c-2.134,0.104-3.653,0.438-4.562,1.006s-1.362,1.451-1.362,2.651
			c0,0.956,0.291,1.7,0.873,2.229C692.996,182.254,693.818,182.519,694.88,182.519z"/>
		<path fill="#3C3C3B" d="M710.414,182.547c0.876,0,1.64-0.075,2.291-0.226v1.125c-0.67,0.226-1.443,0.338-2.318,0.338
			c-1.342,0-2.331-0.36-2.969-1.083c-0.639-0.722-0.957-1.856-0.957-3.404v-9.874h-2.249v-0.816l2.249-0.633l0.698-3.46h0.713v3.699
			h4.456v1.21h-4.456v9.678c0,1.172,0.204,2.039,0.614,2.602S709.539,182.547,710.414,182.547z"/>
		<path fill="#3C3C3B" d="M725.433,183.503h-10.841v-0.886l9.011-13.167h-8.354v-1.237h10.156v0.886l-9.066,13.166h9.095V183.503z"
			/>
	</g>
	<g>
		<path fill="#3C3C3B" d="M590.585,127.444c-7.5,0-12.968-2.827-16.403-8.483h-0.314l0.135,3.79c0.119,2.227,0.18,4.663,0.18,7.311
			v18.684h-4.438V77.488h3.765l0.852,6.995h0.27c3.346-5.294,8.694-7.942,16.045-7.942c6.573,0,11.586,2.174,15.037,6.521
			c3.451,4.348,5.177,10.672,5.177,18.976c0,8.063-1.815,14.313-5.445,18.751C601.813,125.227,596.86,127.444,590.585,127.444z
			 M590.496,123.474c4.989,0,8.852-1.865,11.586-5.597c2.733-3.729,4.101-8.95,4.101-15.659c0-14.411-5.17-21.616-15.508-21.616
			c-5.677,0-9.846,1.572-12.505,4.716c-2.659,3.144-3.988,8.267-3.988,15.366v1.444c0,7.672,1.277,13.147,3.832,16.427
			S584.729,123.474,590.496,123.474z"/>
	</g>
	<g>
		<path fill="#3C3C3B" d="M628.797,126.542h-4.438V56.323h4.438V126.542z"/>
	</g>
	<g>
		<path fill="#3C3C3B" d="M648.958,77.488v31.77c0,4.935,1.031,8.522,3.093,10.763c2.062,2.242,5.259,3.362,9.591,3.362
			c5.797,0,10.063-1.474,12.797-4.422c2.733-2.948,4.101-7.747,4.101-14.396V77.488h4.393v49.054h-3.765l-0.808-6.77h-0.269
			c-3.167,5.115-8.8,7.672-16.897,7.672c-11.085,0-16.628-5.972-16.628-17.916V77.488H648.958z"/>
	</g>
	<g>
		<path fill="#3C3C3B" d="M729.471,113.771c0,4.394-1.659,7.77-4.976,10.132s-8.022,3.542-14.118,3.542
			c-6.515,0-11.684-1.008-15.508-3.023v-4.829c4.9,2.468,10.069,3.701,15.508,3.701c4.811,0,8.463-0.805,10.959-2.415
			c2.494-1.608,3.742-3.752,3.742-6.431c0-2.466-0.994-4.542-2.98-6.228c-1.987-1.685-5.252-3.339-9.793-4.964
			c-4.871-1.774-8.292-3.302-10.264-4.58c-1.973-1.278-3.459-2.723-4.46-4.333c-1.002-1.608-1.502-3.572-1.502-5.889
			c0-3.67,1.531-6.573,4.595-8.709c3.063-2.136,7.343-3.204,12.841-3.204c5.259,0,10.248,0.993,14.97,2.979l-1.658,4.062
			c-4.781-1.986-9.219-2.979-13.312-2.979c-3.975,0-7.127,0.662-9.457,1.986c-2.331,1.324-3.496,3.159-3.496,5.505
			c0,2.558,0.903,4.604,2.712,6.138c1.808,1.534,5.34,3.249,10.6,5.145c4.393,1.595,7.589,3.031,9.592,4.31
			c2.001,1.279,3.503,2.73,4.504,4.354C728.97,109.664,729.471,111.575,729.471,113.771z"/>
	</g>
	<g>
		<path fill="#009640" d="M259.822,41.255h-18.407v-8.289h18.407V13.967h8.325v18.999H286.6v8.289h-18.453v18.906h-8.325V41.255z"/>
	</g>
</g>
</svg>
