<?xml version="1.0" encoding="utf-8"?>
<!-- Generator: Adobe Illustrator 16.0.3, SVG Export Plug-In . SVG Version: 6.00 Build 0)  -->
<!DOCTYPE svg PUBLIC "-//W3C//DTD SVG 1.1//EN" "http://www.w3.org/Graphics/SVG/1.1/DTD/svg11.dtd">
<svg version="1.1" id="Ebene_1" xmlns="http://www.w3.org/2000/svg" xmlns:xlink="http://www.w3.org/1999/xlink" x="0px" y="0px"
	 width="145.597px" height="48.801px" viewBox="0 0 145.597 48.801" enable-background="new 0 0 145.597 48.801"
	 xml:space="preserve">
<g>
	<g>
		<path fill="#009FE3" d="M14.845,25.407h8.742v12.592c-1.36,0.436-2.744,0.768-4.151,0.99c-1.407,0.225-3.037,0.338-4.89,0.338
			c-3.893,0-6.924-1.166-9.093-3.498c-2.169-2.332-3.254-5.6-3.254-9.803c0-2.692,0.536-5.05,1.609-7.075
			c1.073-2.025,2.618-3.571,4.634-4.64c2.017-1.069,4.38-1.604,7.088-1.604c2.744,0,5.3,0.508,7.668,1.523l-1.161,2.656
			c-2.322-0.991-4.556-1.487-6.701-1.487c-3.131,0-5.576,0.938-7.334,2.815s-2.638,4.48-2.638,7.81c0,3.494,0.847,6.145,2.542,7.951
			c1.694,1.807,4.183,2.711,7.466,2.711c1.782,0,3.523-0.207,5.224-0.621v-7.969h-5.751V25.407z"/>
	</g>
	<g>
		<path fill="#009FE3" d="M44.27,32.083c0,2.279-0.821,4.055-2.462,5.33s-3.87,1.914-6.684,1.914c-3.049,0-5.394-0.396-7.036-1.188
			v-2.904c1.056,0.449,2.205,0.803,3.448,1.063c1.243,0.26,2.474,0.391,3.693,0.391c1.993,0,3.494-0.381,4.503-1.143
			c1.008-0.762,1.512-1.822,1.512-3.18c0-0.896-0.179-1.631-0.536-2.205c-0.358-0.572-0.956-1.1-1.794-1.584
			c-0.839-0.484-2.114-1.033-3.826-1.648c-2.392-0.861-4.101-1.883-5.127-3.063c-1.026-1.181-1.539-2.721-1.539-4.622
			c0-1.995,0.744-3.583,2.233-4.764s3.459-1.771,5.91-1.771c2.556,0,4.907,0.473,7.053,1.417l-0.932,2.621
			C40.564,15.849,38.5,15.4,36.496,15.4c-1.583,0-2.82,0.343-3.711,1.027s-1.337,1.635-1.337,2.851c0,0.897,0.164,1.633,0.493,2.205
			c0.328,0.573,0.882,1.098,1.662,1.576s1.973,1.007,3.579,1.585c2.697,0.969,4.553,2.008,5.567,3.118S44.27,30.311,44.27,32.083z"
			/>
	</g>
	<g>
		<path fill="#009FE3" d="M65.699,38.971l-3.201-8.234H52.191l-3.166,8.234H46l10.166-25.998h2.516l10.113,25.998H65.699z
			 M61.565,28.028l-2.99-8.023c-0.387-1.016-0.786-2.261-1.196-3.737c-0.258,1.134-0.627,2.38-1.108,3.737l-3.025,8.023H61.565z"/>
	</g>
	<g>
		<path fill="#3C3C3B" d="M87.363,32.002c0,2.268-0.547,4.039-1.639,5.313c-1.092,1.275-2.6,1.912-4.521,1.912
			c-1.211,0-2.277-0.293-3.2-0.883c-0.923-0.588-1.63-1.432-2.121-2.531c-0.491-1.1-0.737-2.369-0.737-3.811
			c0-2.268,0.546-4.033,1.638-5.301c1.092-1.266,2.591-1.898,4.496-1.898c1.896,0,3.385,0.642,4.465,1.923
			C86.823,28.01,87.363,29.77,87.363,32.002z M76.466,32.002c0,1.91,0.417,3.4,1.251,4.469c0.834,1.07,2.013,1.605,3.537,1.605
			c1.524,0,2.703-0.535,3.537-1.605c0.834-1.068,1.251-2.559,1.251-4.469c0-1.918-0.421-3.406-1.264-4.463s-2.025-1.586-3.55-1.586
			c-1.523,0-2.698,0.527-3.524,1.58S76.466,30.077,76.466,32.002z"/>
	</g>
	<g>
		<path fill="#3C3C3B" d="M100.813,38.971v-9.014c0-1.398-0.292-2.416-0.876-3.051s-1.49-0.953-2.719-0.953
			c-1.65,0-2.859,0.42-3.625,1.26c-0.767,0.84-1.149,2.201-1.149,4.086v7.672h-1.257V25.073h1.066l0.241,1.904h0.076
			c0.897-1.449,2.493-2.173,4.788-2.173c3.133,0,4.699,1.693,4.699,5.076v9.092H100.813z"/>
	</g>
	<g>
		<path fill="#3C3C3B" d="M107.79,38.971h-1.257V19.075h1.257V38.971z"/>
	</g>
	<g>
		<path fill="#3C3C3B" d="M112.232,21.21c0-0.818,0.268-1.228,0.801-1.228c0.262,0,0.467,0.107,0.615,0.32s0.223,0.516,0.223,0.907
			c0,0.384-0.074,0.687-0.223,0.908s-0.354,0.332-0.615,0.332C112.5,22.45,112.232,22.037,112.232,21.21z M113.668,38.971h-1.258
			V25.073h1.258V38.971z"/>
	</g>
	<g>
		<path fill="#3C3C3B" d="M127.915,38.971v-9.014c0-1.398-0.292-2.416-0.876-3.051s-1.49-0.953-2.718-0.953
			c-1.651,0-2.859,0.42-3.626,1.26s-1.149,2.201-1.149,4.086v7.672h-1.257V25.073h1.066l0.241,1.904h0.076
			c0.897-1.449,2.494-2.173,4.788-2.173c3.133,0,4.699,1.693,4.699,5.076v9.092H127.915z"/>
	</g>
	<g>
		<path fill="#3C3C3B" d="M139.209,39.227c-2.007,0-3.571-0.621-4.692-1.867c-1.122-1.244-1.683-2.986-1.683-5.229
			c0-2.217,0.541-3.992,1.625-5.326s2.544-2.001,4.382-2.001c1.625,0,2.908,0.572,3.848,1.712c0.94,1.143,1.41,2.695,1.41,4.656
			v1.021h-9.944c0.017,1.91,0.459,3.367,1.327,4.373s2.11,1.51,3.728,1.51c0.787,0,1.479-0.055,2.076-0.166s1.353-0.35,2.267-0.717
			v1.15c-0.778,0.342-1.498,0.574-2.158,0.697C140.732,39.165,140.005,39.227,139.209,39.227z M138.841,25.928
			c-1.329,0-2.396,0.441-3.2,1.324c-0.805,0.883-1.274,2.154-1.41,3.816h8.534c0-1.611-0.347-2.871-1.041-3.777
			C141.029,26.383,140.068,25.928,138.841,25.928z"/>
	</g>
	<g>
		<path fill="#009640" d="M73.499,12.72h5.399v1.82h-5.399v5.621h-1.821V14.54h-5.373v-1.82h5.373V7.072h1.821V12.72z"/>
	</g>
</g>
</svg>
