<?xml version="1.0" encoding="utf-8"?>
<!-- Generator: Adobe Illustrator 16.0.3, SVG Export Plug-In . SVG Version: 6.00 Build 0)  -->
<!DOCTYPE svg PUBLIC "-//W3C//DTD SVG 1.1//EN" "http://www.w3.org/Graphics/SVG/1.1/DTD/svg11.dtd">
<svg version="1.1" id="Ebene_1" xmlns="http://www.w3.org/2000/svg" xmlns:xlink="http://www.w3.org/1999/xlink" x="0px" y="0px"
	 width="145.597px" height="51.333px" viewBox="0 0 145.597 51.333" enable-background="new 0 0 145.597 51.333"
	 xml:space="preserve">
<g>
	<g>
		<path fill="#009FE3" d="M14.845,20.703h8.742v12.592c-1.36,0.437-2.744,0.768-4.151,0.991c-1.407,0.225-3.037,0.337-4.89,0.337
			c-3.893,0-6.924-1.166-9.093-3.498c-2.169-2.331-3.254-5.599-3.254-9.802c0-2.692,0.536-5.051,1.609-7.075
			c1.073-2.025,2.618-3.571,4.634-4.641c2.017-1.068,4.38-1.603,7.088-1.603c2.744,0,5.3,0.508,7.668,1.523l-1.161,2.656
			c-2.322-0.992-4.556-1.487-6.701-1.487c-3.131,0-5.576,0.938-7.334,2.815s-2.638,4.48-2.638,7.811
			c0,3.494,0.847,6.145,2.542,7.951c1.694,1.807,4.183,2.71,7.466,2.71c1.782,0,3.523-0.207,5.224-0.62v-7.97h-5.751V20.703z"/>
	</g>
	<g>
		<path fill="#009FE3" d="M44.27,27.379c0,2.278-0.821,4.055-2.462,5.33s-3.87,1.913-6.684,1.913c-3.049,0-5.394-0.396-7.036-1.187
			v-2.904c1.056,0.448,2.205,0.803,3.448,1.063c1.243,0.26,2.474,0.39,3.693,0.39c1.993,0,3.494-0.381,4.503-1.143
			c1.008-0.762,1.512-1.821,1.512-3.179c0-0.897-0.179-1.632-0.536-2.205c-0.358-0.572-0.956-1.101-1.794-1.585
			c-0.839-0.484-2.114-1.033-3.826-1.647c-2.392-0.861-4.101-1.883-5.127-3.063c-1.026-1.181-1.539-2.721-1.539-4.622
			c0-1.995,0.744-3.583,2.233-4.764s3.459-1.771,5.91-1.771c2.556,0,4.907,0.473,7.053,1.417l-0.932,2.621
			c-2.123-0.897-4.186-1.346-6.191-1.346c-1.583,0-2.82,0.342-3.711,1.027c-0.891,0.685-1.337,1.635-1.337,2.851
			c0,0.897,0.164,1.633,0.493,2.205c0.328,0.573,0.882,1.098,1.662,1.576s1.973,1.007,3.579,1.585
			c2.697,0.968,4.553,2.007,5.567,3.117C43.762,24.167,44.27,25.608,44.27,27.379z"/>
	</g>
	<g>
		<path fill="#009FE3" d="M65.699,34.268l-3.201-8.235H52.191l-3.166,8.235H46L56.166,8.27h2.516l10.113,25.998H65.699z
			 M61.565,23.324l-2.99-8.022c-0.387-1.016-0.786-2.261-1.196-3.737c-0.258,1.134-0.627,2.38-1.108,3.737l-3.025,8.022H61.565z"/>
	</g>
	<g>
		<path fill="#3C3C3B" d="M87.363,27.299c0,2.268-0.547,4.038-1.639,5.313s-2.6,1.912-4.521,1.912c-1.211,0-2.277-0.294-3.2-0.883
			c-0.923-0.588-1.63-1.432-2.121-2.531c-0.491-1.1-0.737-2.37-0.737-3.811c0-2.268,0.546-4.034,1.638-5.301
			c1.092-1.266,2.591-1.898,4.496-1.898c1.896,0,3.385,0.642,4.465,1.924C86.823,23.307,87.363,25.066,87.363,27.299z
			 M76.466,27.299c0,1.909,0.417,3.399,1.251,4.469c0.834,1.07,2.013,1.604,3.537,1.604c1.524,0,2.703-0.534,3.537-1.604
			c0.834-1.069,1.251-2.56,1.251-4.469c0-1.918-0.421-3.406-1.264-4.463s-2.025-1.586-3.55-1.586c-1.523,0-2.698,0.526-3.524,1.579
			C76.879,23.883,76.466,25.373,76.466,27.299z"/>
	</g>
	<g>
		<path fill="#3C3C3B" d="M100.813,34.268v-9.015c0-1.398-0.292-2.415-0.876-3.05c-0.584-0.636-1.49-0.953-2.719-0.953
			c-1.65,0-2.859,0.42-3.625,1.26c-0.767,0.84-1.149,2.201-1.149,4.086v7.672h-1.257V20.369h1.066l0.241,1.905h0.076
			c0.897-1.449,2.493-2.174,4.788-2.174c3.133,0,4.699,1.692,4.699,5.076v9.092H100.813z"/>
	</g>
	<g>
		<path fill="#3C3C3B" d="M107.79,34.268h-1.257V14.372h1.257V34.268z"/>
	</g>
	<g>
		<path fill="#3C3C3B" d="M112.232,16.506c0-0.818,0.268-1.228,0.801-1.228c0.262,0,0.467,0.106,0.615,0.32
			c0.148,0.213,0.223,0.516,0.223,0.907c0,0.384-0.074,0.687-0.223,0.908s-0.354,0.332-0.615,0.332
			C112.5,17.747,112.232,17.333,112.232,16.506z M113.668,34.268h-1.258V20.369h1.258V34.268z"/>
	</g>
	<g>
		<path fill="#3C3C3B" d="M127.915,34.268v-9.015c0-1.398-0.292-2.415-0.876-3.05c-0.584-0.636-1.49-0.953-2.718-0.953
			c-1.651,0-2.859,0.42-3.626,1.26s-1.149,2.201-1.149,4.086v7.672h-1.257V20.369h1.066l0.241,1.905h0.076
			c0.897-1.449,2.494-2.174,4.788-2.174c3.133,0,4.699,1.692,4.699,5.076v9.092H127.915z"/>
	</g>
	<g>
		<path fill="#3C3C3B" d="M139.209,34.524c-2.007,0-3.571-0.622-4.692-1.867c-1.122-1.244-1.683-2.987-1.683-5.229
			c0-2.217,0.541-3.992,1.625-5.326s2.544-2.001,4.382-2.001c1.625,0,2.908,0.571,3.848,1.713c0.94,1.143,1.41,2.694,1.41,4.655
			v1.022h-9.944c0.017,1.91,0.459,3.367,1.327,4.373s2.11,1.509,3.728,1.509c0.787,0,1.479-0.055,2.076-0.166
			c0.597-0.11,1.353-0.35,2.267-0.716v1.15c-0.778,0.342-1.498,0.574-2.158,0.697C140.732,34.461,140.005,34.524,139.209,34.524z
			 M138.841,21.225c-1.329,0-2.396,0.441-3.2,1.323c-0.805,0.883-1.274,2.155-1.41,3.817h8.534c0-1.611-0.347-2.871-1.041-3.778
			C141.029,21.679,140.068,21.225,138.841,21.225z"/>
	</g>
	<g>
		<path fill="#3C3C3B" d="M6.15,45.69h1.968v2.835c-0.306,0.099-0.618,0.173-0.935,0.224S6.5,48.825,6.083,48.825
			c-0.877,0-1.56-0.263-2.048-0.788c-0.489-0.525-0.733-1.261-0.733-2.207c0-0.606,0.121-1.138,0.362-1.594s0.59-0.804,1.044-1.045
			c0.454-0.24,0.986-0.36,1.596-0.36c0.618,0,1.193,0.114,1.727,0.343L7.77,43.771c-0.522-0.223-1.026-0.335-1.509-0.335
			c-0.705,0-1.256,0.212-1.652,0.635S4.015,45.08,4.015,45.83c0,0.787,0.191,1.384,0.572,1.79c0.382,0.407,0.942,0.61,1.682,0.61
			c0.401,0,0.793-0.046,1.176-0.14v-1.795H6.15V45.69z"/>
		<path fill="#3C3C3B" d="M11.163,48.825c-0.642,0-1.148-0.197-1.519-0.591c-0.371-0.394-0.557-0.939-0.557-1.639
			c0-0.705,0.172-1.265,0.517-1.68c0.345-0.414,0.808-0.622,1.389-0.622c0.544,0,0.974,0.181,1.291,0.541s0.476,0.835,0.476,1.426
			v0.419H9.769c0.013,0.513,0.142,0.902,0.386,1.168s0.588,0.399,1.032,0.399c0.467,0,0.93-0.099,1.386-0.296v0.591
			c-0.232,0.101-0.452,0.173-0.659,0.217C11.706,48.802,11.456,48.825,11.163,48.825z M10.985,44.848
			c-0.349,0-0.627,0.114-0.834,0.343c-0.208,0.229-0.33,0.545-0.366,0.949h2.27c0-0.417-0.093-0.737-0.277-0.959
			C11.592,44.959,11.328,44.848,10.985,44.848z"/>
		<path fill="#3C3C3B" d="M16.599,47.552c0,0.406-0.15,0.721-0.452,0.941c-0.301,0.221-0.724,0.331-1.268,0.331
			c-0.576,0-1.024-0.092-1.347-0.275v-0.614c0.208,0.106,0.433,0.19,0.671,0.251c0.239,0.062,0.469,0.092,0.691,0.092
			c0.343,0,0.607-0.055,0.792-0.165c0.185-0.11,0.277-0.278,0.277-0.505c0-0.17-0.073-0.315-0.22-0.437s-0.433-0.264-0.857-0.429
			c-0.404-0.151-0.691-0.284-0.862-0.396c-0.17-0.113-0.297-0.242-0.38-0.386c-0.083-0.144-0.125-0.314-0.125-0.514
			c0-0.356,0.144-0.638,0.432-0.844s0.683-0.31,1.185-0.31c0.467,0,0.924,0.096,1.37,0.287l-0.233,0.539
			c-0.436-0.181-0.831-0.271-1.185-0.271c-0.312,0-0.546,0.049-0.705,0.147c-0.158,0.099-0.237,0.234-0.237,0.407
			c0,0.117,0.029,0.217,0.089,0.299s0.155,0.161,0.287,0.235c0.132,0.074,0.386,0.182,0.761,0.323
			c0.515,0.188,0.863,0.379,1.043,0.57C16.509,47.022,16.599,47.262,16.599,47.552z"/>
		<path fill="#3C3C3B" d="M18.206,44.374v2.836c0,0.356,0.081,0.622,0.242,0.797c0.161,0.176,0.413,0.264,0.756,0.264
			c0.455,0,0.787-0.125,0.997-0.375s0.314-0.658,0.314-1.225v-2.297h0.658v4.371H20.63l-0.095-0.586h-0.036
			c-0.135,0.215-0.321,0.38-0.561,0.494c-0.239,0.114-0.512,0.172-0.818,0.172c-0.528,0-0.923-0.127-1.186-0.379
			c-0.263-0.253-0.395-0.657-0.395-1.213v-2.859H18.206z"/>
		<path fill="#3C3C3B" d="M25.456,48.745v-2.827c0-0.356-0.081-0.623-0.242-0.798c-0.161-0.176-0.414-0.264-0.757-0.264
			c-0.454,0-0.787,0.124-0.998,0.371c-0.211,0.247-0.317,0.655-0.317,1.225v2.293h-0.657v-4.371h0.535l0.107,0.599h0.032
			c0.135-0.216,0.323-0.383,0.566-0.501c0.243-0.118,0.514-0.178,0.812-0.178c0.523,0,0.916,0.127,1.18,0.381
			s0.396,0.66,0.396,1.219v2.852H25.456z"/>
		<path fill="#3C3C3B" d="M30.338,48.159h-0.036c-0.304,0.443-0.758,0.666-1.362,0.666c-0.568,0-1.01-0.195-1.325-0.587
			c-0.315-0.391-0.473-0.946-0.473-1.667s0.158-1.28,0.475-1.679s0.758-0.599,1.323-0.599c0.589,0,1.04,0.216,1.354,0.646h0.051
			l-0.027-0.315l-0.016-0.307v-1.779h0.658v6.206h-0.535L30.338,48.159z M29.023,48.27c0.449,0,0.774-0.123,0.977-0.369
			c0.202-0.246,0.303-0.643,0.303-1.19v-0.14c0-0.619-0.102-1.062-0.307-1.326c-0.205-0.265-0.532-0.396-0.98-0.396
			c-0.386,0-0.681,0.151-0.885,0.453s-0.307,0.728-0.307,1.277c0,0.559,0.102,0.98,0.305,1.265
			C28.331,48.127,28.629,48.27,29.023,48.27z"/>
		<path fill="#3C3C3B" d="M34.917,44.374v2.836c0,0.356,0.081,0.622,0.242,0.797c0.161,0.176,0.413,0.264,0.756,0.264
			c0.455,0,0.787-0.125,0.997-0.375s0.314-0.658,0.314-1.225v-2.297h0.658v4.371h-0.542l-0.095-0.586H37.21
			c-0.135,0.215-0.321,0.38-0.561,0.494c-0.239,0.114-0.512,0.172-0.818,0.172c-0.528,0-0.923-0.127-1.186-0.379
			c-0.263-0.253-0.395-0.657-0.395-1.213v-2.859H34.917z"/>
		<path fill="#3C3C3B" d="M42.167,48.745v-2.827c0-0.356-0.081-0.623-0.242-0.798c-0.161-0.176-0.414-0.264-0.757-0.264
			c-0.454,0-0.787,0.124-0.998,0.371c-0.211,0.247-0.317,0.655-0.317,1.225v2.293h-0.657v-4.371h0.535l0.107,0.599h0.032
			c0.135-0.216,0.323-0.383,0.566-0.501c0.243-0.118,0.514-0.178,0.812-0.178c0.523,0,0.916,0.127,1.18,0.381
			s0.396,0.66,0.396,1.219v2.852H42.167z"/>
		<path fill="#3C3C3B" d="M47.049,48.159h-0.036c-0.304,0.443-0.758,0.666-1.362,0.666c-0.568,0-1.01-0.195-1.325-0.587
			c-0.315-0.391-0.473-0.946-0.473-1.667s0.158-1.28,0.475-1.679s0.758-0.599,1.323-0.599c0.589,0,1.04,0.216,1.354,0.646h0.051
			l-0.027-0.315l-0.016-0.307v-1.779h0.658v6.206h-0.535L47.049,48.159z M45.734,48.27c0.449,0,0.774-0.123,0.977-0.369
			c0.202-0.246,0.303-0.643,0.303-1.19v-0.14c0-0.619-0.102-1.062-0.307-1.326c-0.205-0.265-0.532-0.396-0.98-0.396
			c-0.386,0-0.681,0.151-0.885,0.453s-0.307,0.728-0.307,1.277c0,0.559,0.102,0.98,0.305,1.265
			C45.042,48.127,45.341,48.27,45.734,48.27z"/>
		<path fill="#3C3C3B" d="M53.811,47.552c0,0.406-0.15,0.721-0.452,0.941c-0.301,0.221-0.724,0.331-1.268,0.331
			c-0.576,0-1.024-0.092-1.347-0.275v-0.614c0.208,0.106,0.433,0.19,0.671,0.251c0.239,0.062,0.469,0.092,0.691,0.092
			c0.343,0,0.607-0.055,0.792-0.165c0.185-0.11,0.277-0.278,0.277-0.505c0-0.17-0.073-0.315-0.22-0.437s-0.433-0.264-0.857-0.429
			c-0.404-0.151-0.691-0.284-0.862-0.396c-0.17-0.113-0.297-0.242-0.38-0.386c-0.083-0.144-0.125-0.314-0.125-0.514
			c0-0.356,0.144-0.638,0.432-0.844s0.683-0.31,1.185-0.31c0.467,0,0.924,0.096,1.37,0.287l-0.233,0.539
			c-0.436-0.181-0.831-0.271-1.185-0.271c-0.312,0-0.546,0.049-0.705,0.147c-0.158,0.099-0.237,0.234-0.237,0.407
			c0,0.117,0.029,0.217,0.089,0.299s0.155,0.161,0.287,0.235c0.132,0.074,0.386,0.182,0.761,0.323
			c0.515,0.188,0.863,0.379,1.043,0.57C53.721,47.022,53.811,47.262,53.811,47.552z"/>
		<path fill="#3C3C3B" d="M56.201,48.278c0.116,0,0.229-0.009,0.337-0.025c0.108-0.018,0.194-0.035,0.257-0.054v0.506
			c-0.071,0.035-0.176,0.063-0.315,0.086s-0.263,0.034-0.374,0.034c-0.84,0-1.26-0.445-1.26-1.336v-2.601h-0.622v-0.319l0.622-0.275
			l0.277-0.933h0.38v1.013h1.259v0.515h-1.259v2.572c0,0.264,0.062,0.465,0.186,0.606C55.814,48.208,55.985,48.278,56.201,48.278z"
			/>
		<path fill="#3C3C3B" d="M59.563,44.293c0.192,0,0.366,0.017,0.519,0.048l-0.091,0.614c-0.18-0.04-0.338-0.06-0.476-0.06
			c-0.351,0-0.651,0.144-0.901,0.431s-0.375,0.645-0.375,1.073v2.345h-0.657v-4.371h0.542l0.075,0.81h0.032
			c0.161-0.284,0.355-0.504,0.583-0.658C59.041,44.371,59.291,44.293,59.563,44.293z"/>
		<path fill="#3C3C3B" d="M62.646,48.825c-0.642,0-1.148-0.197-1.519-0.591c-0.371-0.394-0.557-0.939-0.557-1.639
			c0-0.705,0.172-1.265,0.517-1.68c0.345-0.414,0.808-0.622,1.389-0.622c0.544,0,0.974,0.181,1.291,0.541s0.476,0.835,0.476,1.426
			v0.419h-2.991c0.013,0.513,0.142,0.902,0.386,1.168s0.588,0.399,1.032,0.399c0.467,0,0.93-0.099,1.386-0.296v0.591
			c-0.232,0.101-0.452,0.173-0.659,0.217C63.189,48.802,62.939,48.825,62.646,48.825z M62.468,44.848
			c-0.349,0-0.627,0.114-0.834,0.343c-0.208,0.229-0.33,0.545-0.366,0.949h2.27c0-0.417-0.093-0.737-0.277-0.959
			C63.075,44.959,62.811,44.848,62.468,44.848z"/>
		<path fill="#3C3C3B" d="M68.083,47.552c0,0.406-0.15,0.721-0.452,0.941c-0.301,0.221-0.724,0.331-1.268,0.331
			c-0.576,0-1.024-0.092-1.347-0.275v-0.614c0.208,0.106,0.433,0.19,0.671,0.251c0.239,0.062,0.469,0.092,0.691,0.092
			c0.343,0,0.607-0.055,0.792-0.165c0.185-0.11,0.277-0.278,0.277-0.505c0-0.17-0.073-0.315-0.22-0.437s-0.433-0.264-0.857-0.429
			c-0.404-0.151-0.691-0.284-0.862-0.396c-0.17-0.113-0.297-0.242-0.38-0.386c-0.083-0.144-0.125-0.314-0.125-0.514
			c0-0.356,0.144-0.638,0.432-0.844s0.683-0.31,1.185-0.31c0.467,0,0.924,0.096,1.37,0.287l-0.233,0.539
			c-0.436-0.181-0.831-0.271-1.185-0.271c-0.312,0-0.546,0.049-0.705,0.147c-0.158,0.099-0.237,0.234-0.237,0.407
			c0,0.117,0.029,0.217,0.089,0.299s0.155,0.161,0.287,0.235c0.132,0.074,0.386,0.182,0.761,0.323
			c0.515,0.188,0.863,0.379,1.043,0.57C67.992,47.022,68.083,47.262,68.083,47.552z"/>
		<path fill="#3C3C3B" d="M71.871,47.552c0,0.406-0.15,0.721-0.452,0.941c-0.301,0.221-0.724,0.331-1.268,0.331
			c-0.576,0-1.024-0.092-1.347-0.275v-0.614c0.208,0.106,0.433,0.19,0.671,0.251c0.239,0.062,0.469,0.092,0.691,0.092
			c0.343,0,0.607-0.055,0.792-0.165c0.185-0.11,0.277-0.278,0.277-0.505c0-0.17-0.073-0.315-0.22-0.437s-0.433-0.264-0.857-0.429
			c-0.404-0.151-0.691-0.284-0.862-0.396c-0.17-0.113-0.297-0.242-0.38-0.386c-0.083-0.144-0.125-0.314-0.125-0.514
			c0-0.356,0.144-0.638,0.432-0.844s0.683-0.31,1.185-0.31c0.467,0,0.924,0.096,1.37,0.287l-0.233,0.539
			c-0.436-0.181-0.831-0.271-1.185-0.271c-0.312,0-0.546,0.049-0.705,0.147c-0.158,0.099-0.237,0.234-0.237,0.407
			c0,0.117,0.029,0.217,0.089,0.299s0.155,0.161,0.287,0.235c0.132,0.074,0.386,0.182,0.761,0.323
			c0.515,0.188,0.863,0.379,1.043,0.57C71.781,47.022,71.871,47.262,71.871,47.552z"/>
		<path fill="#3C3C3B" d="M74.816,44.888h-1.105v3.856h-0.658v-3.856h-0.776v-0.299l0.776-0.239v-0.244
			c0-1.073,0.466-1.61,1.398-1.61c0.229,0,0.499,0.046,0.808,0.139l-0.17,0.531c-0.253-0.083-0.47-0.124-0.65-0.124
			c-0.248,0-0.432,0.083-0.55,0.249c-0.119,0.166-0.178,0.433-0.178,0.8v0.283h1.105V44.888z"/>
		<path fill="#3C3C3B" d="M77.508,44.293c0.192,0,0.366,0.017,0.519,0.048l-0.091,0.614c-0.18-0.04-0.338-0.06-0.476-0.06
			c-0.351,0-0.651,0.144-0.901,0.431s-0.375,0.645-0.375,1.073v2.345h-0.657v-4.371h0.542l0.075,0.81h0.032
			c0.161-0.284,0.355-0.504,0.583-0.658C76.986,44.371,77.236,44.293,77.508,44.293z"/>
		<path fill="#3C3C3B" d="M80.592,48.825c-0.643,0-1.148-0.197-1.519-0.591c-0.371-0.394-0.557-0.939-0.557-1.639
			c0-0.705,0.172-1.265,0.517-1.68c0.344-0.414,0.807-0.622,1.388-0.622c0.544,0,0.975,0.181,1.292,0.541
			c0.316,0.36,0.475,0.835,0.475,1.426v0.419h-2.99c0.014,0.513,0.143,0.902,0.387,1.168s0.588,0.399,1.031,0.399
			c0.468,0,0.93-0.099,1.387-0.296v0.591c-0.232,0.101-0.452,0.173-0.66,0.217C81.135,48.802,80.885,48.825,80.592,48.825z
			 M80.413,44.848c-0.349,0-0.626,0.114-0.833,0.343c-0.208,0.229-0.33,0.545-0.367,0.949h2.27c0-0.417-0.092-0.737-0.277-0.959
			C81.021,44.959,80.757,44.848,80.413,44.848z"/>
		<path fill="#3C3C3B" d="M83.172,43.189c0-0.151,0.037-0.263,0.111-0.333c0.073-0.07,0.166-0.105,0.277-0.105
			c0.105,0,0.196,0.036,0.272,0.107c0.077,0.072,0.115,0.183,0.115,0.331c0,0.149-0.038,0.26-0.115,0.333
			c-0.076,0.073-0.167,0.109-0.272,0.109c-0.111,0-0.204-0.036-0.277-0.109C83.209,43.449,83.172,43.338,83.172,43.189z
			 M83.885,48.745h-0.657v-4.371h0.657V48.745z"/>
		<path fill="#3C3C3B" d="M89.895,48.745l-0.131-0.622h-0.032c-0.216,0.273-0.432,0.459-0.647,0.557
			c-0.215,0.097-0.483,0.146-0.806,0.146c-0.431,0-0.768-0.112-1.013-0.335c-0.244-0.224-0.366-0.541-0.366-0.953
			c0-0.883,0.701-1.346,2.104-1.389l0.736-0.023v-0.271c0-0.343-0.073-0.596-0.22-0.76c-0.146-0.163-0.381-0.245-0.703-0.245
			c-0.361,0-0.771,0.111-1.228,0.335l-0.202-0.507c0.214-0.116,0.448-0.208,0.703-0.274s0.511-0.1,0.767-0.1
			c0.518,0,0.901,0.115,1.15,0.347c0.25,0.231,0.374,0.602,0.374,1.112v2.983H89.895z M88.409,48.278
			c0.409,0,0.73-0.113,0.964-0.339c0.234-0.226,0.351-0.542,0.351-0.949v-0.395l-0.657,0.027c-0.522,0.019-0.9,0.101-1.131,0.246
			c-0.231,0.145-0.347,0.37-0.347,0.676c0,0.239,0.072,0.421,0.216,0.546S88.15,48.278,88.409,48.278z"/>
		<path fill="#3C3C3B" d="M97.188,48.745v-2.844c0-0.348-0.074-0.609-0.222-0.783c-0.148-0.175-0.378-0.262-0.689-0.262
			c-0.409,0-0.712,0.118-0.907,0.355c-0.195,0.236-0.293,0.601-0.293,1.093v2.44h-0.657v-2.844c0-0.348-0.074-0.609-0.222-0.783
			c-0.148-0.175-0.379-0.262-0.693-0.262c-0.412,0-0.714,0.124-0.905,0.373s-0.287,0.656-0.287,1.223v2.293h-0.657v-4.371h0.534
			l0.107,0.599h0.031c0.124-0.213,0.3-0.379,0.525-0.499c0.226-0.119,0.479-0.18,0.759-0.18c0.678,0,1.122,0.248,1.33,0.742h0.032
			c0.129-0.229,0.316-0.409,0.563-0.542c0.245-0.134,0.525-0.2,0.84-0.2c0.491,0,0.858,0.127,1.103,0.381s0.366,0.66,0.366,1.219
			v2.852H97.188z"/>
		<path fill="#3C3C3B" d="M104.885,48.745l-0.721-1.854h-2.321l-0.713,1.854h-0.682l2.289-5.854h0.566l2.278,5.854H104.885z
			 M103.954,46.28l-0.674-1.807c-0.087-0.229-0.177-0.509-0.27-0.842c-0.058,0.256-0.141,0.536-0.249,0.842l-0.682,1.807H103.954z"
			/>
		<path fill="#3C3C3B" d="M108.178,44.293c0.192,0,0.365,0.017,0.519,0.048l-0.091,0.614c-0.18-0.04-0.338-0.06-0.476-0.06
			c-0.351,0-0.651,0.144-0.901,0.431c-0.249,0.287-0.374,0.645-0.374,1.073v2.345h-0.657v-4.371h0.543l0.075,0.81h0.031
			c0.161-0.284,0.355-0.504,0.582-0.658C107.656,44.371,107.905,44.293,108.178,44.293z"/>
		<path fill="#3C3C3B" d="M111.447,44.302c0.57,0,1.014,0.195,1.329,0.588s0.474,0.947,0.474,1.665s-0.159,1.275-0.478,1.673
			s-0.76,0.597-1.325,0.597c-0.282,0-0.54-0.053-0.774-0.158c-0.233-0.104-0.43-0.267-0.588-0.484h-0.048l-0.138,0.563h-0.472
			v-6.206h0.657v1.508c0,0.338-0.011,0.641-0.031,0.909h0.031C110.392,44.52,110.846,44.302,111.447,44.302z M111.353,44.856
			c-0.449,0-0.772,0.13-0.971,0.389c-0.197,0.26-0.297,0.696-0.297,1.311s0.102,1.054,0.305,1.318
			c0.204,0.265,0.53,0.396,0.979,0.396c0.404,0,0.705-0.148,0.903-0.444c0.198-0.297,0.297-0.723,0.297-1.278
			c0-0.569-0.099-0.993-0.297-1.272S111.768,44.856,111.353,44.856z"/>
		<path fill="#3C3C3B" d="M116.151,48.825c-0.642,0-1.148-0.197-1.52-0.591s-0.557-0.939-0.557-1.639
			c0-0.705,0.173-1.265,0.518-1.68c0.345-0.414,0.807-0.622,1.388-0.622c0.544,0,0.975,0.181,1.292,0.541
			c0.316,0.36,0.475,0.835,0.475,1.426v0.419h-2.99c0.014,0.513,0.142,0.902,0.387,1.168c0.244,0.266,0.588,0.399,1.031,0.399
			c0.468,0,0.93-0.099,1.387-0.296v0.591c-0.232,0.101-0.452,0.173-0.66,0.217C116.694,48.802,116.444,48.825,116.151,48.825z
			 M115.973,44.848c-0.349,0-0.626,0.114-0.834,0.343c-0.207,0.229-0.329,0.545-0.366,0.949h2.27c0-0.417-0.092-0.737-0.277-0.959
			C116.58,44.959,116.316,44.848,115.973,44.848z"/>
		<path fill="#3C3C3B" d="M118.732,43.189c0-0.151,0.037-0.263,0.111-0.333c0.073-0.07,0.166-0.105,0.277-0.105
			c0.105,0,0.196,0.036,0.272,0.107c0.077,0.072,0.115,0.183,0.115,0.331c0,0.149-0.038,0.26-0.115,0.333
			c-0.076,0.073-0.167,0.109-0.272,0.109c-0.111,0-0.204-0.036-0.277-0.109C118.77,43.449,118.732,43.338,118.732,43.189z
			 M119.445,48.745h-0.657v-4.371h0.657V48.745z"/>
		<path fill="#3C3C3B" d="M122.16,48.278c0.116,0,0.229-0.009,0.336-0.025c0.108-0.018,0.194-0.035,0.258-0.054v0.506
			c-0.071,0.035-0.176,0.063-0.314,0.086s-0.264,0.034-0.375,0.034c-0.84,0-1.259-0.445-1.259-1.336v-2.601h-0.622v-0.319
			l0.622-0.275l0.276-0.933h0.381v1.013h1.26v0.515h-1.26v2.572c0,0.264,0.062,0.465,0.186,0.606
			C121.773,48.208,121.943,48.278,122.16,48.278z"/>
		<path fill="#3C3C3B" d="M126.341,47.552c0,0.406-0.15,0.721-0.451,0.941s-0.724,0.331-1.268,0.331
			c-0.575,0-1.024-0.092-1.347-0.275v-0.614c0.209,0.106,0.433,0.19,0.672,0.251c0.238,0.062,0.469,0.092,0.69,0.092
			c0.344,0,0.607-0.055,0.793-0.165c0.185-0.11,0.276-0.278,0.276-0.505c0-0.17-0.073-0.315-0.22-0.437s-0.432-0.264-0.857-0.429
			c-0.403-0.151-0.691-0.284-0.861-0.396c-0.17-0.113-0.297-0.242-0.38-0.386s-0.125-0.314-0.125-0.514
			c0-0.356,0.144-0.638,0.432-0.844s0.683-0.31,1.185-0.31c0.467,0,0.924,0.096,1.37,0.287l-0.233,0.539
			c-0.436-0.181-0.831-0.271-1.185-0.271c-0.312,0-0.547,0.049-0.705,0.147s-0.237,0.234-0.237,0.407
			c0,0.117,0.029,0.217,0.089,0.299s0.155,0.161,0.287,0.235s0.386,0.182,0.761,0.323c0.515,0.188,0.862,0.379,1.044,0.57
			C126.251,47.022,126.341,47.262,126.341,47.552z"/>
		<path fill="#3C3C3B" d="M129.35,48.825c-0.282,0-0.54-0.053-0.774-0.158c-0.233-0.104-0.43-0.267-0.588-0.484h-0.048
			c0.032,0.256,0.048,0.497,0.048,0.726v1.799h-0.657v-6.333h0.534l0.092,0.599h0.031c0.169-0.239,0.366-0.412,0.59-0.519
			c0.225-0.106,0.482-0.16,0.772-0.16c0.576,0,1.021,0.198,1.333,0.595c0.313,0.396,0.47,0.952,0.47,1.667
			c0,0.718-0.159,1.275-0.478,1.673S129.915,48.825,129.35,48.825z M129.255,44.856c-0.443,0-0.765,0.124-0.963,0.371
			c-0.197,0.247-0.299,0.641-0.305,1.181v0.147c0,0.614,0.102,1.054,0.305,1.318c0.204,0.265,0.53,0.396,0.979,0.396
			c0.375,0,0.669-0.153,0.882-0.459c0.212-0.306,0.318-0.727,0.318-1.264c0-0.545-0.106-0.963-0.318-1.255
			C129.939,45.001,129.641,44.856,129.255,44.856z"/>
		<path fill="#3C3C3B" d="M132.877,48.745h-0.657v-6.206h0.657V48.745z"/>
		<path fill="#3C3C3B" d="M136.86,48.745l-0.131-0.622h-0.032c-0.216,0.273-0.432,0.459-0.647,0.557
			c-0.215,0.097-0.483,0.146-0.806,0.146c-0.431,0-0.768-0.112-1.013-0.335c-0.244-0.224-0.366-0.541-0.366-0.953
			c0-0.883,0.701-1.346,2.104-1.389l0.736-0.023v-0.271c0-0.343-0.073-0.596-0.22-0.76c-0.146-0.163-0.381-0.245-0.703-0.245
			c-0.361,0-0.771,0.111-1.228,0.335l-0.202-0.507c0.214-0.116,0.448-0.208,0.703-0.274s0.511-0.1,0.767-0.1
			c0.518,0,0.901,0.115,1.15,0.347c0.25,0.231,0.374,0.602,0.374,1.112v2.983H136.86z M135.375,48.278
			c0.409,0,0.73-0.113,0.964-0.339c0.234-0.226,0.351-0.542,0.351-0.949v-0.395l-0.657,0.027c-0.522,0.019-0.9,0.101-1.131,0.246
			c-0.231,0.145-0.347,0.37-0.347,0.676c0,0.239,0.072,0.421,0.216,0.546S135.116,48.278,135.375,48.278z"/>
		<path fill="#3C3C3B" d="M140.022,48.278c0.116,0,0.229-0.009,0.336-0.025c0.108-0.018,0.194-0.035,0.258-0.054v0.506
			c-0.071,0.035-0.176,0.063-0.314,0.086s-0.264,0.034-0.375,0.034c-0.84,0-1.259-0.445-1.259-1.336v-2.601h-0.622v-0.319
			l0.622-0.275l0.276-0.933h0.381v1.013h1.26v0.515h-1.26v2.572c0,0.264,0.062,0.465,0.186,0.606
			C139.636,48.208,139.806,48.278,140.022,48.278z"/>
		<path fill="#3C3C3B" d="M144.18,48.745h-3.148v-0.45l2.368-3.406h-2.222v-0.515h2.942v0.515l-2.337,3.342h2.396V48.745z"/>
	</g>
	<g>
		<path fill="#009640" d="M73.499,8.016h5.399v1.82h-5.399v5.621h-1.821V9.836h-5.373v-1.82h5.373V2.369h1.821V8.016z"/>
	</g>
</g>
</svg>
