<?xml version="1.0" encoding="utf-8"?>
<!-- Generator: Adobe Illustrator 16.0.3, SVG Export Plug-In . SVG Version: 6.00 Build 0)  -->
<!DOCTYPE svg PUBLIC "-//W3C//DTD SVG 1.1//EN" "http://www.w3.org/Graphics/SVG/1.1/DTD/svg11.dtd">
<svg version="1.1" id="Ebene_1" xmlns="http://www.w3.org/2000/svg" xmlns:xlink="http://www.w3.org/1999/xlink" x="0px" y="0px"
	 width="488.225px" height="73.893px" viewBox="156.128 263.369 488.225 73.893"
	 enable-background="new 156.128 263.369 488.225 73.893" xml:space="preserve">
<g>
	<g>
		<path fill="#7391B5" d="M456.822,277.662c0.362,0.884,0.468,1.195,0.728,2.08c2.236-1.872,4.212-2.601,7.021-2.601
			c3.744,0,5.979,1.04,7.903,3.692c1.872-2.601,4.316-3.692,8.269-3.692c3.797,0,6.656,1.404,7.957,3.9
			c0.778,1.508,0.987,2.912,0.987,7.228v14.093h-8.841V288.27c0-1.924-0.104-2.6-0.571-3.224c-0.571-0.78-1.456-1.146-2.704-1.146
			c-2.548,0-3.691,1.456-3.691,4.524v13.937h-8.841v-13.677c0-1.976-0.156-2.912-0.521-3.536c-0.468-0.779-1.402-1.248-2.6-1.248
			c-2.756,0-3.796,1.354-3.796,4.94v13.521h-8.841v-18.513c0-3.588-0.104-4.108-1.04-6.188L456.822,277.662L456.822,277.662z"/>
		<path fill="#7391B5" d="M501.646,291.963c0.104,3.067,1.924,4.784,5.147,4.784c2.235,0,3.536-0.677,4.472-2.236l8.01,0.261
			c-1.456,5.199-6.086,8.216-12.585,8.216c-4.057,0-6.969-0.884-9.36-2.808c-2.809-2.341-4.42-5.929-4.42-10.037
			c0-7.8,5.513-13.104,13.572-13.104c8.009,0,13.053,5.097,13.053,13.104c0,0.521,0,1.092-0.052,1.82H501.646z M510.538,286.606
			c-0.313-2.548-1.612-3.691-4.212-3.691c-2.496,0-3.953,1.195-4.524,3.691H510.538z"/>
		<path fill="#7391B5" d="M548.445,267.678v27.094c0,5.824,0,5.668,0.676,7.592h-8.216c-0.208-0.779-0.261-1.092-0.416-2.08
			c-1.716,1.82-3.744,2.601-6.708,2.601c-6.969,0-11.806-5.304-11.806-12.948c0-7.436,4.681-12.792,11.182-12.792
			c2.65,0,4.42,0.676,6.448,2.548v-12.013L548.445,267.678L548.445,267.678z M530.973,289.986c0,3.798,1.718,6.293,4.368,6.293
			c2.652,0,4.368-2.495,4.368-6.293c0-3.743-1.716-6.239-4.368-6.239C532.689,283.747,530.973,286.243,530.973,289.986z"/>
		<path fill="#7391B5" d="M562.9,277.662v24.7h-8.841v-24.7H562.9z"/>
		<path fill="#7391B5" d="M588.85,277.662v5.46l-11.44,13h11.647v6.239h-22.725v-5.615l11.337-12.846h-9.984v-6.239L588.85,277.662
			L588.85,277.662z"/>
		<path fill="#7391B5" d="M601.797,277.662v24.7h-8.841v-24.7H601.797z"/>
		<path fill="#7391B5" d="M614.848,277.662c0.364,0.832,0.47,1.145,0.625,2.08c2.08-1.82,4.107-2.601,7.021-2.601
			c4.16,0,7.488,1.82,8.789,4.836c0.623,1.404,0.778,2.809,0.778,6.553v13.832h-8.84v-12.845c0-2.288-0.104-3.224-0.416-3.952
			c-0.416-1.04-1.508-1.664-2.859-1.664c-1.561,0-2.756,0.729-3.328,2.028c-0.364,0.78-0.468,1.82-0.468,3.744v12.688h-8.842
			v-15.705c0-5.771-0.052-6.292-1.04-8.996h8.58V277.662z"/>
	</g>
	<g>
		<g>
			<path fill="#004077" d="M241.023,277.508v14.688c0.037,3.19,0,2.228,0.037,2.856c0.148,2.597,0.742,3.82,2.337,4.748
				c1.039,0.594,2.485,0.964,3.932,0.964c2.708,0,4.896-1.112,5.713-2.931c0.333-0.778,0.556-2.077,0.556-3.708v-1.931v-14.688
				h2.114v14.726v1.781c0,2.67-0.296,4.043-1.15,5.341c-1.372,2.114-3.969,3.302-7.233,3.302c-3.635,0-6.417-1.41-7.641-3.932
				c-0.594-1.188-0.779-2.375-0.779-4.711v-1.781v-14.726L241.023,277.508L241.023,277.508z"/>
			<path fill="#004077" d="M264.172,277.508l12.464,21.664v-21.664h1.966v24.742h-2.448l-12.315-21.589v21.589h-2.003v-24.742
				H264.172z"/>
			<path fill="#004077" d="M285.023,302.25v-24.742h2.188v24.742H285.023z"/>
			<path fill="#004077" d="M293.185,277.508l7.418,22.256l7.271-22.256h2.188l-8.531,24.964h-2.078l-8.495-24.964H293.185z"/>
			<path fill="#004077" d="M326.053,288.525v1.854h-10.09v10.016h10.98v1.854h-13.094v-24.741h12.946v1.854h-10.832v9.163
				L326.053,288.525L326.053,288.525z"/>
			<path fill="#004077" d="M336.034,277.508c2.337,0,2.745,0,3.821,0.111c4.488,0.37,6.899,2.744,6.899,6.677
				c0,3.264-1.78,5.49-5.341,6.677l6.788,11.275h-2.597l-6.64-10.979h-4.6v10.979h-2.114v-24.741L336.034,277.508L336.034,277.508z
				 M336.108,289.416c3.264,0,4.081-0.074,5.342-0.521c1.966-0.668,3.004-2.337,3.004-4.749c0-1.966-0.964-3.598-2.597-4.229
				c-1.187-0.445-2.188-0.558-5.712-0.558h-1.781v10.054h1.744V289.416z"/>
			<path fill="#004077" d="M364.228,283.629c-0.296-2.968-2.077-4.637-4.933-4.637c-2.894,0-4.934,1.705-4.934,4.116
				c0,1.15,0.556,2.151,1.558,2.895c0.557,0.371,1.113,0.705,1.744,1.001l0.927,0.445l0.927,0.407l0.891,0.445
				c3.042,1.41,4.451,2.3,5.304,3.449c0.89,1.113,1.335,2.522,1.335,4.043c0,4.007-3.19,6.862-7.678,6.862
				c-2.856,0-5.045-0.928-6.417-2.708c-1.001-1.298-1.447-2.634-1.558-4.934h2.114c0.186,3.673,2.263,5.749,5.824,5.749
				c3.153,0,5.49-2.002,5.49-4.711c0-1.409-0.445-2.447-1.41-3.375c-0.742-0.705-1.521-1.15-3.709-2.151
				c-1.298-0.594-2.56-1.224-3.301-1.595c-3.004-1.521-4.191-3.153-4.191-5.676c0-3.524,3.004-6.158,6.974-6.158
				c4.34,0,6.899,2.337,7.122,6.529h-2.079V283.629z"/>
			<path fill="#004077" d="M372.725,302.25v-24.742h2.188v24.742H372.725z"/>
			<path fill="#004077" d="M394.13,277.508v1.854h-6.38v22.887h-2.114v-22.887h-6.417v-1.854H394.13z"/>
			<path fill="#004077" d="M403.898,277.323l8.566,24.928h-2.227l-2.41-7.012h-9.495l-2.448,7.012h-2.188l8.569-24.928H403.898z
				 M403.082,280.327l-4.154,13.058h8.271L403.082,280.327z"/>
			<path fill="#004077" d="M426.74,277.508v1.854h-6.381v22.887h-2.114v-22.887h-6.417v-1.854H426.74z"/>
			<path fill="#004077" d="M442.21,283.629c-0.296-2.968-2.077-4.637-4.933-4.637c-2.896,0-4.935,1.705-4.935,4.116
				c0,1.15,0.557,2.151,1.558,2.895c0.557,0.371,1.112,0.705,1.743,1.001l0.929,0.445l0.927,0.407l0.891,0.445
				c3.042,1.41,4.451,2.3,5.305,3.449c0.891,1.113,1.336,2.522,1.336,4.043c0,4.007-3.189,6.862-7.68,6.862
				c-2.855,0-5.044-0.928-6.417-2.708c-1.002-1.298-1.446-2.634-1.559-4.934h2.115c0.186,3.673,2.263,5.749,5.824,5.749
				c3.151,0,5.488-2.002,5.488-4.711c0-1.409-0.444-2.447-1.409-3.375c-0.741-0.705-1.521-1.15-3.71-2.151
				c-1.298-0.594-2.56-1.224-3.302-1.595c-3.004-1.521-4.19-3.153-4.19-5.676c0-3.524,3.005-6.158,6.975-6.158
				c4.34,0,6.898,2.337,7.121,6.529h-2.077V283.629z"/>
		</g>
		<rect x="397.538" y="272.73" fill="#004077" width="10.834" height="1.984"/>
	</g>
	<rect x="590.109" y="317.17" fill="#7391B5" width="54.166" height="1.983"/>
	<g>
		<path fill="#004077" d="M592.091,322.922l4.321,12.965l4.321-12.965h1.978v14.34h-1.225v-13.223l-4.451,13.223h-1.225
			l-4.474-13.223v13.223h-1.225v-14.34H592.091L592.091,322.922z"/>
		<path fill="#004077" d="M611.031,322.814l4.967,14.447h-1.289l-1.398-4.063h-5.504l-1.418,4.063h-1.27l4.967-14.447H611.031z
			 M610.559,324.557l-2.407,7.566h4.795L610.559,324.557z"/>
		<path fill="#004077" d="M618.363,337.262v-14.34h1.269v14.34H618.363z"/>
		<path fill="#004077" d="M624.318,322.922l7.224,12.556v-12.556h1.14v14.34h-1.419l-7.138-12.512v12.512h-1.161v-14.34H624.318z"/>
		<path fill="#004077" d="M644.334,322.922v0.838l-7.632,12.428h7.503v1.074h-8.943v-0.945l7.547-12.319h-7.139v-1.074
			L644.334,322.922L644.334,322.922z"/>
	</g>
	<rect x="635.508" y="293.854" fill="#7391B5" width="8.845" height="8.505"/>
	<rect x="554.019" y="268.308" fill="#7391B5" width="8.89" height="6.99"/>
	<rect x="592.938" y="268.308" fill="#7391B5" width="8.89" height="6.99"/>
	<g>
		<path fill="#C00B25" d="M156.128,263.369h50.796v50.796h-50.796V263.369z"/>
		<g>
			<path fill="#FFFFFF" d="M164.479,283.787c0-1.053-0.306-1.311-1.818-1.311l-0.09-0.092v-0.295
				c0.018-0.203,0.18-0.222,0.288-0.222c0.486,0,1.062,0.092,2.287,0.092c0.9,0,1.98-0.092,2.701-0.092l0.09,0.092v0.369
				l-0.072,0.11l-0.486,0.037c-0.72,0.055-1.278,0.129-1.278,0.979v10.994c0,2.104-0.81,4.649-3.223,4.649
				c-0.9,0-1.855-0.388-2.017-1.384c-0.09-0.535,0.414-0.941,0.9-0.941c0.594,0,0.756,0.406,0.9,0.794
				c0.144,0.405,0.288,0.813,0.81,0.813c0.9,0,1.008-2.271,1.008-4.06V283.787L164.479,283.787z"/>
			<path fill="#FFFFFF" d="M181.313,294.007c-1.387,0.885-3.493,1.144-4.321,1.144c-5.168,0-7.455-3.651-7.455-6.457
				c0-5.977,5.564-7.084,7.634-7.084c1.675,0,2.935,0.443,4.016,1.016c0.036,0.147,0.126,1.604,0.126,2.417
				c0,0.109-0.288,0.166-0.378,0.166c-0.108,0-0.198,0-0.216-0.074c-0.234-1.402-1.333-2.804-3.709-2.804
				c-2.125,0-5.456,1.604-5.456,6.031c0,3.229,2.359,6.069,5.167,6.069c2.125,0,3.223-0.959,3.223-2.084v-1.273
				c0-0.923-0.468-1.198-1.224-1.198h-1.333c-0.09,0-0.126-0.11-0.126-0.295c0-0.239,0.018-0.426,0.18-0.426h5.203
				c0.126,0,0.108,0.148,0.108,0.24c0,0.186-0.036,0.406-0.126,0.406h-0.216c-0.864,0-1.098,0.11-1.098,1.07L181.313,294.007
				L181.313,294.007z"/>
		</g>
		<path fill="#FFFFFF" d="M186.323,272.638h0.66v30.864h-0.66V272.638z"/>
		<path fill="#FFFFFF" d="M199.713,281.836h1.583l-0.056,8.133c-0.055,4.189-2.67,5.189-5.159,5.189
			c-2.766,0-4.958-1.266-4.958-5.229l0.037-3.567l0.037-4.527h1.583l-0.037,4.811l-0.037,3.682c0,2.378,1.235,3.472,3.484,3.472
			c1.88,0,3.448-0.943,3.466-3.925L199.713,281.836L199.713,281.836z"/>
	</g>
</g>
</svg>
